<?xml version="1.0" encoding="UTF-8" standalone="no"?>
<!-- Uploaded to: SVG Repo, www.svgrepo.com, Generator: SVG Repo Mixer Tools -->

<svg
   width="800px"
   height="800px"
   viewBox="0 0 60.601004 60.601004"
   version="1.1"
   id="svg46"
   sodipodi:docname="Co.svg"
   inkscape:version="1.4 (86a8ad7, 2024-10-11)"
   xml:space="preserve"
   xmlns:inkscape="http://www.inkscape.org/namespaces/inkscape"
   xmlns:sodipodi="http://sodipodi.sourceforge.net/DTD/sodipodi-0.dtd"
   xmlns="http://www.w3.org/2000/svg"
   xmlns:svg="http://www.w3.org/2000/svg"
   xmlns:rdf="http://www.w3.org/1999/02/22-rdf-syntax-ns#"
   xmlns:cc="http://creativecommons.org/ns#"
   xmlns:dc="http://purl.org/dc/elements/1.1/"><sodipodi:namedview
     id="namedview46"
     pagecolor="#ffffff"
     bordercolor="#666666"
     borderopacity="1.0"
     inkscape:showpageshadow="2"
     inkscape:pageopacity="0.0"
     inkscape:pagecheckerboard="0"
     inkscape:deskcolor="#d1d1d1"
     showguides="true"
     inkscape:zoom="1.48"
     inkscape:cx="490.54054"
     inkscape:cy="465.2027"
     inkscape:window-width="3840"
     inkscape:window-height="2080"
     inkscape:window-x="5749"
     inkscape:window-y="-11"
     inkscape:window-maximized="1"
     inkscape:current-layer="svg46"
     showgrid="false"><sodipodi:guide
       position="13.827235,17.242934"
       orientation="1,0"
       id="guide4"
       inkscape:locked="false" /><sodipodi:guide
       position="-5.3564226,6.6024733"
       orientation="0,-1"
       id="guide5"
       inkscape:locked="false" /><sodipodi:guide
       position="28.86737,56.039251"
       orientation="-1,0"
       id="guide1"
       inkscape:locked="false" /></sodipodi:namedview><defs
     id="defs1">
	

		
	
		
	
	

	

		
	
	

		
	</defs><metadata
     id="metadata1"><rdf:RDF><cc:Work
         rdf:about=""><dc:format>image/svg+xml</dc:format><dc:type
           rdf:resource="http://purl.org/dc/dcmitype/StillImage" /><dc:source>http://www.ecomo.or.jp/barrierfree/pictogram/data/zukigo_panfu_jis110.pdf</dc:source></cc:Work></rdf:RDF></metadata><path
     d="m 7.7786277,56.039253 c -1.77625,0 -3.2175,-1.44 -3.2175,-3.2175 l 0,-45.0425003 c 0,-1.7775 1.44125,-3.2175 3.2175,-3.2175 l 45.0437503,0 c 1.77625,0 3.2175,1.44 3.2175,3.2175 l 0,45.0425003 c 0,1.7775 -1.44125,3.2175 -3.2175,3.2175 l -45.0437503,0 z"
     style="fill:none;stroke:#1e90ff;stroke-width:0.60625005;stroke-linecap:butt;stroke-linejoin:miter;stroke-miterlimit:4;stroke-dasharray:none;stroke-opacity:1;fill-opacity:1"
     id="path1" /><path
     d="m 9.0101262,27.72378 c -0.7262819,0 -1.3155874,-0.588794 -1.3155874,-1.315587 V 7.9909913 c 0,-0.726794 0.5893055,-1.3155879 1.3155874,-1.3155879 H 27.427839 c 0.726283,0 1.315588,0.5887939 1.315588,1.3155879 V 26.408193 c 0,0.726793 -0.589305,1.315587 -1.315588,1.315587 z"
     style="fill:none;fill-opacity:1;stroke:#1e90ff;stroke-width:0.247887;stroke-linecap:butt;stroke-linejoin:miter;stroke-miterlimit:4;stroke-dasharray:none;stroke-opacity:1"
     id="path1-1" /><path
     d="m 33.051579,27.701991 c -0.728667,0 -1.319906,-0.590728 -1.319906,-1.319907 V 7.9044128 c 0,-0.7291789 0.591239,-1.3199066 1.319906,-1.3199066 h 18.478184 c 0.728666,0 1.319907,0.5907277 1.319907,1.3199066 V 26.382084 c 0,0.729179 -0.591241,1.319907 -1.319907,1.319907 z"
     style="fill:none;fill-opacity:1;stroke:#1e90ff;stroke-width:0.248701;stroke-linecap:butt;stroke-linejoin:miter;stroke-miterlimit:4;stroke-dasharray:none;stroke-opacity:1"
     id="path1-0" /><text
     xml:space="preserve"
     style="font-style:normal;font-variant:normal;font-weight:normal;font-stretch:normal;font-size:14.5442px;line-height:1.25;font-family:Sans;-inkscape-font-specification:'Sans, Normal';font-variant-ligatures:none;font-variant-caps:normal;font-variant-numeric:normal;font-variant-east-asian:normal;letter-spacing:0px;word-spacing:0px;fill:#1e90ff;fill-opacity:1;stroke-width:0.21069"
     x="34.007744"
     y="22.342798"
     id="text3"
     textAnchor="middle"><tspan
       sodipodi:role="line"
       id="tspan3"
       style="font-style:normal;font-variant:normal;font-weight:normal;font-stretch:normal;font-size:14.5442px;font-family:Sans;-inkscape-font-specification:'Sans, Normal';font-variant-ligatures:none;font-variant-caps:normal;font-variant-numeric:normal;font-variant-east-asian:normal;fill:#1e90ff;fill-opacity:1;stroke-width:0.21069"
       x="34.007744"
       y="22.342798"
       textAnchor="middle">70</tspan></text><g
     id="g2"><path
       d="m 12.829992,13.553229 q -1.458545,0 -2.295623,0.976591 -0.837077,0.976591 -0.837077,2.676113 0,1.686839 0.773662,2.676113 0.786346,0.976591 2.346355,0.976591 0.596101,0 1.128787,-0.101464 0.532686,-0.101464 1.040006,-0.25366 v 0.989274 q -0.50732,0.190245 -1.052689,0.279026 -0.532686,0.08878 -1.280983,0.08878 -1.382447,0 -2.308306,-0.570735 Q 9.418268,20.719123 8.9489985,19.666434 8.492412,18.613745 8.492412,17.193249 q 0,-1.369764 0.4946355,-2.40977 0.5073185,-1.052689 1.4839065,-1.636107 0.976591,-0.596101 2.371721,-0.596101 1.433179,0 2.498551,0.532686 l -0.456588,0.963908 q -0.418539,-0.190245 -0.938542,-0.342441 -0.50732,-0.152196 -1.116104,-0.152195 z m 11.782501,3.640021 q 0,1.407813 -0.481954,2.460502 -0.469271,1.040006 -1.39513,1.623424 -0.925859,0.583418 -2.295623,0.583418 -1.407813,0 -2.346355,-0.583418 -0.925859,-0.583418 -1.382447,-1.636107 -0.456588,-1.052689 -0.456588,-2.460502 0,-1.39513 0.456588,-2.435136 0.456588,-1.040006 1.382447,-1.623424 0.938542,-0.583418 2.359038,-0.583418 1.357081,0 2.28294,0.583418 0.925859,0.570735 1.39513,1.623424 0.481954,1.040006 0.481954,2.447819 z m -7.153212,0 q 0,1.712205 0.722931,2.701479 0.722931,0.976591 2.257574,0.976591 1.547326,0 2.257574,-0.976591 0.710248,-0.989274 0.710248,-2.701479 0,-1.712205 -0.710248,-2.676113 -0.710248,-0.976591 -2.244891,-0.976591 -1.534643,0 -2.270257,0.976591 -0.722931,0.963908 -0.722931,2.676113 z"
       id="text3-4"
       style="font-size:12.683px;line-height:1.25;font-family:Sans;-inkscape-font-specification:'Sans, Normal';font-variant-ligatures:none;letter-spacing:0px;word-spacing:0px;fill:#ffffff;stroke-width:0.183728;fill-opacity:1"
       aria-label="CO" /><path
       d="m 27.957859,23.000767 h -3.304787 v -0.695396 l 1.185484,-1.198731 q 0.357633,-0.370878 0.576186,-0.615922 0.218553,-0.251667 0.317895,-0.450352 0.09934,-0.205307 0.09934,-0.437106 0,-0.284781 -0.158947,-0.42386 -0.152325,-0.13908 -0.417238,-0.13908 -0.271536,0 -0.529826,0.125834 -0.25829,0.125834 -0.543071,0.357632 l -0.543071,-0.642413 q 0.205307,-0.178816 0.430483,-0.331141 0.231799,-0.152325 0.529826,-0.245045 0.30465,-0.09934 0.72851,-0.09934 0.463597,0 0.794738,0.172193 0.337764,0.165571 0.51658,0.456975 0.185439,0.284781 0.185439,0.649036 0,0.390747 -0.158947,0.715265 -0.152325,0.324518 -0.450352,0.642413 -0.291404,0.317896 -0.708642,0.702019 l -0.609299,0.569563 v 0.04636 h 2.059697 z"
       id="text3-4-3"
       style="font-weight:bold;font-size:6.62282px;line-height:1.25;font-family:Sans;-inkscape-font-specification:'Sans, Bold';font-variant-ligatures:none;letter-spacing:0px;word-spacing:0px;fill:#ffffff;stroke-width:0.0959394;fill-opacity:1"
       aria-label="2" /></g></svg>
