<?xml version="1.0" encoding="UTF-8" standalone="no"?>
<!-- Uploaded to: SVG Repo, www.svgrepo.com, Generator: SVG Repo Mixer Tools -->

<svg
   width="800px"
   height="800px"
   viewBox="0 0 60.601004 60.601004"
   version="1.1"
   id="svg46"
   sodipodi:docname="excerise.svg"
   inkscape:version="1.4 (86a8ad7, 2024-10-11)"
   xml:space="preserve"
   xmlns:inkscape="http://www.inkscape.org/namespaces/inkscape"
   xmlns:sodipodi="http://sodipodi.sourceforge.net/DTD/sodipodi-0.dtd"
   xmlns="http://www.w3.org/2000/svg"
   xmlns:svg="http://www.w3.org/2000/svg"
   xmlns:rdf="http://www.w3.org/1999/02/22-rdf-syntax-ns#"
   xmlns:cc="http://creativecommons.org/ns#"
   xmlns:dc="http://purl.org/dc/elements/1.1/"><sodipodi:namedview
     id="namedview46"
     pagecolor="#ffffff"
     bordercolor="#666666"
     borderopacity="1.0"
     inkscape:showpageshadow="2"
     inkscape:pageopacity="0.0"
     inkscape:pagecheckerboard="0"
     inkscape:deskcolor="#d1d1d1"
     showguides="true"
     inkscape:zoom="1.48"
     inkscape:cx="413.85135"
     inkscape:cy="465.2027"
     inkscape:window-width="3840"
     inkscape:window-height="2080"
     inkscape:window-x="5749"
     inkscape:window-y="-11"
     inkscape:window-maximized="1"
     inkscape:current-layer="g6"
     showgrid="false"><sodipodi:guide
       position="13.827235,17.242934"
       orientation="1,0"
       id="guide4"
       inkscape:locked="false" /><sodipodi:guide
       position="-5.3564226,6.6024733"
       orientation="0,-1"
       id="guide5"
       inkscape:locked="false" /><sodipodi:guide
       position="28.86737,56.039251"
       orientation="-1,0"
       id="guide1"
       inkscape:locked="false" /></sodipodi:namedview><defs
     id="defs1" /><metadata
     id="metadata1"><rdf:RDF><cc:Work
         rdf:about=""><dc:format>image/svg+xml</dc:format><dc:type
           rdf:resource="http://purl.org/dc/dcmitype/StillImage" /><dc:source>http://www.ecomo.or.jp/barrierfree/pictogram/data/zukigo_panfu_jis110.pdf</dc:source></cc:Work></rdf:RDF></metadata><path
     d="m 7.7786277,56.039253 c -1.77625,0 -3.2175,-1.44 -3.2175,-3.2175 l 0,-45.0425003 c 0,-1.7775 1.44125,-3.2175 3.2175,-3.2175 l 45.0437503,0 c 1.77625,0 3.2175,1.44 3.2175,3.2175 l 0,45.0425003 c 0,1.7775 -1.44125,3.2175 -3.2175,3.2175 l -45.0437503,0 z"
     style="fill:none;stroke:#1e90ff;stroke-width:0.60625005;stroke-linecap:butt;stroke-linejoin:miter;stroke-miterlimit:4;stroke-dasharray:none;stroke-opacity:1;fill-opacity:1"
     id="path1" /><g
     id="g1"
     transform="matrix(1.0664189,0,0,1.0664189,-1.7369985,-1.697454)"><path
       d="m 32.742153,27.58222 c -0.683284,0 -1.2377,-0.553936 -1.2377,-1.2377 V 9.0176787 c 0,-0.683764 0.554416,-1.2376999 1.2377,-1.2376999 h 17.327322 c 0.683283,0 1.2377,0.5539359 1.2377,1.2376999 V 26.34452 c 0,0.683764 -0.554417,1.2377 -1.2377,1.2377 z"
       style="fill:none;fill-opacity:1;stroke:#1e90ff;stroke-width:0.233211;stroke-linecap:butt;stroke-linejoin:miter;stroke-miterlimit:4;stroke-dasharray:none;stroke-opacity:1"
       id="path1-0" /></g><g
     id="g3"
     transform="translate(0.8981815,-0.84865901)"><path
       d="m 8.1119447,28.572439 c -0.7262819,0 -1.3155874,-0.588794 -1.3155874,-1.315587 V 8.8396503 c 0,-0.726794 0.5893055,-1.3155879 1.3155874,-1.3155879 H 26.529658 c 0.726282,0 1.315587,0.5887939 1.315587,1.3155879 V 27.256852 c 0,0.726793 -0.589305,1.315587 -1.315587,1.315587 z"
       style="fill:none;fill-opacity:1;stroke:#1e90ff;stroke-width:0.247887;stroke-linecap:butt;stroke-linejoin:miter;stroke-miterlimit:4;stroke-dasharray:none;stroke-opacity:1"
       id="path1-1" /><g
       style="fill:#1e90ff;stroke:#1e90ff"
       id="g2"
       transform="matrix(0.05885535,0,0,0.05885535,7.6504837,8.3778713)"><g
         id="SVGRepo_bgCarrier"
         stroke-width="0" /><g
         id="SVGRepo_tracerCarrier"
         stroke-linecap="round"
         stroke-linejoin="round" /><g
         id="SVGRepo_iconCarrier"> <g
   id="g4"> <path
   d="m 209.306,50.798 c -2.452,-3.337 -7.147,-4.055 -10.485,-1.602 -3.338,2.453 -4.055,7.147 -1.603,10.485 54.576,74.266 66.032,123.541 66.032,151.8 0,27.691 -8.272,52.794 -23.293,70.685 -17.519,20.866 -42.972,31.446 -75.651,31.446 -73.031,0 -98.944,-55.018 -98.944,-102.131 0,-52.227 28.103,-103.234 51.679,-136.829 25.858,-36.847 52.11,-61.415 52.37,-61.657 3.035,-2.819 3.209,-7.565 0.39,-10.6 -2.819,-3.034 -7.565,-3.209 -10.599,-0.39 -1.11,1.031 -27.497,25.698 -54.254,63.765 -24.901,35.428 -54.586,89.465 -54.586,145.71 0,31.062 9.673,59.599 27.236,80.353 20.361,24.061 50.345,36.779 86.708,36.779 36.794,0 66.926,-12.726 87.139,-36.801 17.286,-20.588 26.806,-49.117 26.806,-80.33 C 278.25,156.216 240.758,93.597 209.306,50.798 Z"
   id="path1-5" /> <path
   d="m 198.43,148.146 -95.162,95.162 c -2.929,2.929 -2.929,7.678 0,10.606 1.465,1.464 3.385,2.197 5.304,2.197 1.919,0 3.839,-0.732 5.304,-2.197 l 95.162,-95.162 c 2.929,-2.929 2.929,-7.678 0,-10.606 -2.931,-2.929 -7.679,-2.929 -10.608,0 z"
   id="path2-8" /> <path
   d="m 191.965,207.899 c -13.292,0 -24.106,10.814 -24.106,24.106 0,13.292 10.814,24.106 24.106,24.106 13.292,0 24.106,-10.814 24.106,-24.106 0,-13.292 -10.814,-24.106 -24.106,-24.106 z m 0,33.212 c -5.021,0 -9.106,-4.085 -9.106,-9.106 0,-5.021 4.085,-9.106 9.106,-9.106 5.021,0 9.106,4.085 9.106,9.106 0,5.021 -4.085,9.106 -9.106,9.106 z"
   id="path3-9" /> <path
   d="m 125.178,194.162 c 13.292,0 24.106,-10.814 24.106,-24.106 0,-13.292 -10.814,-24.106 -24.106,-24.106 -13.292,0 -24.106,10.814 -24.106,24.106 0,13.292 10.814,24.106 24.106,24.106 z m 0,-33.213 c 5.021,0 9.106,4.085 9.106,9.106 0,5.021 -4.085,9.106 -9.106,9.106 -5.021,0 -9.106,-4.085 -9.106,-9.106 0,-5.021 4.084,-9.106 9.106,-9.106 z"
   id="path4-8" /> </g> </g></g></g><text
     xml:space="preserve"
     style="font-size:20.2262px;line-height:1.25;font-family:Sans;-inkscape-font-specification:'Sans, Normal';font-variant-ligatures:none;letter-spacing:0px;word-spacing:0px;stroke-width:0.21069;fill:#1e90ff;fill-opacity:1"
     x="18.7773"
     y="48.136417"
     id="text3"><tspan
       sodipodi:role="line"
       id="tspan3"
       style="stroke-width:0.21069;fill:#1e90ff;fill-opacity:1"
       x="18.7773"
       y="48.136417">70</tspan></text><g
     id="g5"
     transform="matrix(0.39466939,0,0,0.39466939,-29.959458,12.547611)"><g
       id="g6"
       transform="matrix(1.4927057,0,0,1.4927057,128.74751,-41.7704)"><ellipse
         class="cls-1"
         cx="-44.019165"
         cy="38.254173"
         id="circle1"
         transform="scale(-1,1)"
         style="fill:none;stroke:#ffffff;stroke-width:2.45811px;stroke-miterlimit:10;stroke-opacity:1"
         rx="6.1709194"
         ry="6.1069856" /><ellipse
         class="cls-1"
         cx="-28.585405"
         cy="41.314068"
         id="circle2"
         transform="scale(-1,1)"
         style="fill:none;stroke:#ffffff;stroke-width:2.45811px;stroke-miterlimit:10;stroke-opacity:1"
         rx="3.0919278"
         ry="3.0598938" /><polyline
         class="cls-1"
         points="6.27 13.91 8.18 13.91 18.68 13.91"
         id="polyline2"
         transform="matrix(-1.2936936,0,0,1.2802904,52.130632,20.44538)"
         style="fill:none;stroke:#ffffff;stroke-width:1.91px;stroke-miterlimit:10;stroke-opacity:1" /><line
         class="cls-1"
         x1="44.019165"
         y1="44.361156"
         x2="27.964432"
         y2="44.361156"
         id="line2"
         style="fill:none;stroke:#ffffff;stroke-width:2.45811px;stroke-miterlimit:10;stroke-opacity:1" /><line
         class="cls-1"
         x1="27.964432"
         y1="28.472792"
         x2="27.964432"
         y2="38.254173"
         id="line3"
         style="fill:none;stroke:#ffffff;stroke-width:2.45811px;stroke-miterlimit:10;stroke-opacity:1" /><line
         class="cls-1"
         x1="44.019165"
         y1="23.582085"
         x2="44.019165"
         y2="32.147224"
         id="line4"
         style="fill:none;stroke:#ffffff;stroke-width:2.45811px;stroke-miterlimit:10;stroke-opacity:1" /><polyline
         class="cls-1"
         points="0.55 1.5 2.46 1.5 10.09 4.36"
         id="polyline4"
         transform="matrix(-1.2936936,0,0,1.2802904,52.130632,20.44538)"
         style="fill:none;stroke:#ffffff;stroke-width:1.91px;stroke-miterlimit:10;stroke-opacity:1" /><line
         class="cls-1"
         x1="44.019165"
         y1="44.361156"
         x2="46.49012"
         y2="49.251865"
         id="line5"
         style="fill:none;stroke:#ffffff;stroke-width:2.45811px;stroke-miterlimit:10;stroke-opacity:1" /><line
         class="cls-1"
         x1="27.964432"
         y1="44.361156"
         x2="27.964432"
         y2="49.251865"
         id="line6"
         style="fill:none;stroke:#ffffff;stroke-width:2.45811px;stroke-miterlimit:10;stroke-opacity:1" /><line
         class="cls-1"
         x1="21.793514"
         y1="49.251865"
         x2="51.419098"
         y2="49.251865"
         id="line7"
         style="fill:none;stroke:#1e90ff;stroke-width:2.45811px;stroke-miterlimit:10;stroke-opacity:1" /><path
         class="cls-1"
         d="m 24.251533,27.256526 v 0 a 4.2433152,4.1993525 0 0 0 2.988433,1.216276 h 4.424432"
         id="path7"
         style="fill:none;stroke:#ffffff;stroke-width:2.45811px;stroke-miterlimit:10;stroke-opacity:1" /><ellipse
         class="cls-1"
         cx="-44.019165"
         cy="38.254173"
         id="circle7"
         transform="scale(-1,1)"
         style="fill:none;stroke:#ffffff;stroke-width:2.45811px;stroke-miterlimit:10;stroke-opacity:1"
         rx="1.2290089"
         ry="1.2162758" /></g></g></svg>
