<?xml version="1.0" encoding="UTF-8" standalone="no"?>
<!-- Uploaded to: SVG Repo, www.svgrepo.com, Generator: SVG Repo Mixer Tools -->

<svg
   width="800px"
   height="800px"
   viewBox="0 0 60.601004 60.601004"
   version="1.1"
   id="svg46"
   sodipodi:docname="kitchen.svg"
   inkscape:version="1.4 (86a8ad7, 2024-10-11)"
   xml:space="preserve"
   xmlns:inkscape="http://www.inkscape.org/namespaces/inkscape"
   xmlns:sodipodi="http://sodipodi.sourceforge.net/DTD/sodipodi-0.dtd"
   xmlns="http://www.w3.org/2000/svg"
   xmlns:svg="http://www.w3.org/2000/svg"
   xmlns:rdf="http://www.w3.org/1999/02/22-rdf-syntax-ns#"
   xmlns:cc="http://creativecommons.org/ns#"
   xmlns:dc="http://purl.org/dc/elements/1.1/"><sodipodi:namedview
     id="namedview46"
     pagecolor="#ffffff"
     bordercolor="#666666"
     borderopacity="1.0"
     inkscape:showpageshadow="2"
     inkscape:pageopacity="0.0"
     inkscape:pagecheckerboard="0"
     inkscape:deskcolor="#d1d1d1"
     showguides="true"
     inkscape:zoom="1.48"
     inkscape:cx="413.85135"
     inkscape:cy="465.2027"
     inkscape:window-width="3840"
     inkscape:window-height="2080"
     inkscape:window-x="5749"
     inkscape:window-y="-11"
     inkscape:window-maximized="1"
     inkscape:current-layer="g6"
     showgrid="false"><sodipodi:guide
       position="13.827235,17.242934"
       orientation="1,0"
       id="guide4"
       inkscape:locked="false" /><sodipodi:guide
       position="-5.3564226,6.6024733"
       orientation="0,-1"
       id="guide5"
       inkscape:locked="false" /><sodipodi:guide
       position="28.86737,56.039251"
       orientation="-1,0"
       id="guide1"
       inkscape:locked="false" /></sodipodi:namedview><defs
     id="defs1" /><metadata
     id="metadata1"><rdf:RDF><cc:Work
         rdf:about=""><dc:format>image/svg+xml</dc:format><dc:type
           rdf:resource="http://purl.org/dc/dcmitype/StillImage" /><dc:source>http://www.ecomo.or.jp/barrierfree/pictogram/data/zukigo_panfu_jis110.pdf</dc:source></cc:Work></rdf:RDF></metadata><path
     d="m 7.7786277,56.039253 c -1.77625,0 -3.2175,-1.44 -3.2175,-3.2175 l 0,-45.0425003 c 0,-1.7775 1.44125,-3.2175 3.2175,-3.2175 l 45.0437503,0 c 1.77625,0 3.2175,1.44 3.2175,3.2175 l 0,45.0425003 c 0,1.7775 -1.44125,3.2175 -3.2175,3.2175 l -45.0437503,0 z"
     style="fill:none;stroke:#1e90ff;stroke-width:0.60625005;stroke-linecap:butt;stroke-linejoin:miter;stroke-miterlimit:4;stroke-dasharray:none;stroke-opacity:1;fill-opacity:1"
     id="path1" /><g
     id="g1"
     transform="matrix(1.0664189,0,0,1.0664189,-1.7369985,-1.697454)"><path
       d="m 32.742153,27.58222 c -0.683284,0 -1.2377,-0.553936 -1.2377,-1.2377 V 9.0176787 c 0,-0.683764 0.554416,-1.2376999 1.2377,-1.2376999 h 17.327322 c 0.683283,0 1.2377,0.5539359 1.2377,1.2376999 V 26.34452 c 0,0.683764 -0.554417,1.2377 -1.2377,1.2377 z"
       style="fill:none;fill-opacity:1;stroke:#1e90ff;stroke-width:0.233211;stroke-linecap:butt;stroke-linejoin:miter;stroke-miterlimit:4;stroke-dasharray:none;stroke-opacity:1"
       id="path1-0" /></g><g
     id="g3"
     transform="translate(0.8981815,-0.84865901)"><path
       d="m 8.1119447,28.572439 c -0.7262819,0 -1.3155874,-0.588794 -1.3155874,-1.315587 V 8.8396503 c 0,-0.726794 0.5893055,-1.3155879 1.3155874,-1.3155879 H 26.529658 c 0.726282,0 1.315587,0.5887939 1.315587,1.3155879 V 27.256852 c 0,0.726793 -0.589305,1.315587 -1.315587,1.315587 z"
       style="fill:none;fill-opacity:1;stroke:#1e90ff;stroke-width:0.247887;stroke-linecap:butt;stroke-linejoin:miter;stroke-miterlimit:4;stroke-dasharray:none;stroke-opacity:1"
       id="path1-1" /><g
       style="fill:#1e90ff;stroke:#1e90ff"
       id="g2"
       transform="matrix(0.05885535,0,0,0.05885535,7.6504837,8.3778713)"><g
         id="SVGRepo_bgCarrier"
         stroke-width="0" /><g
         id="SVGRepo_tracerCarrier"
         stroke-linecap="round"
         stroke-linejoin="round" /><g
         id="SVGRepo_iconCarrier"> <g
   id="g4"> <path
   d="m 209.306,50.798 c -2.452,-3.337 -7.147,-4.055 -10.485,-1.602 -3.338,2.453 -4.055,7.147 -1.603,10.485 54.576,74.266 66.032,123.541 66.032,151.8 0,27.691 -8.272,52.794 -23.293,70.685 -17.519,20.866 -42.972,31.446 -75.651,31.446 -73.031,0 -98.944,-55.018 -98.944,-102.131 0,-52.227 28.103,-103.234 51.679,-136.829 25.858,-36.847 52.11,-61.415 52.37,-61.657 3.035,-2.819 3.209,-7.565 0.39,-10.6 -2.819,-3.034 -7.565,-3.209 -10.599,-0.39 -1.11,1.031 -27.497,25.698 -54.254,63.765 -24.901,35.428 -54.586,89.465 -54.586,145.71 0,31.062 9.673,59.599 27.236,80.353 20.361,24.061 50.345,36.779 86.708,36.779 36.794,0 66.926,-12.726 87.139,-36.801 17.286,-20.588 26.806,-49.117 26.806,-80.33 C 278.25,156.216 240.758,93.597 209.306,50.798 Z"
   id="path1-5" /> <path
   d="m 198.43,148.146 -95.162,95.162 c -2.929,2.929 -2.929,7.678 0,10.606 1.465,1.464 3.385,2.197 5.304,2.197 1.919,0 3.839,-0.732 5.304,-2.197 l 95.162,-95.162 c 2.929,-2.929 2.929,-7.678 0,-10.606 -2.931,-2.929 -7.679,-2.929 -10.608,0 z"
   id="path2-8" /> <path
   d="m 191.965,207.899 c -13.292,0 -24.106,10.814 -24.106,24.106 0,13.292 10.814,24.106 24.106,24.106 13.292,0 24.106,-10.814 24.106,-24.106 0,-13.292 -10.814,-24.106 -24.106,-24.106 z m 0,33.212 c -5.021,0 -9.106,-4.085 -9.106,-9.106 0,-5.021 4.085,-9.106 9.106,-9.106 5.021,0 9.106,4.085 9.106,9.106 0,5.021 -4.085,9.106 -9.106,9.106 z"
   id="path3-9" /> <path
   d="m 125.178,194.162 c 13.292,0 24.106,-10.814 24.106,-24.106 0,-13.292 -10.814,-24.106 -24.106,-24.106 -13.292,0 -24.106,10.814 -24.106,24.106 0,13.292 10.814,24.106 24.106,24.106 z m 0,-33.213 c 5.021,0 9.106,4.085 9.106,9.106 0,5.021 -4.085,9.106 -9.106,9.106 -5.021,0 -9.106,-4.085 -9.106,-9.106 0,-5.021 4.084,-9.106 9.106,-9.106 z"
   id="path4-8" /> </g> </g></g></g><text
     xml:space="preserve"
     style="font-size:20.2262px;line-height:1.25;font-family:Sans;-inkscape-font-specification:'Sans, Normal';font-variant-ligatures:none;letter-spacing:0px;word-spacing:0px;stroke-width:0.21069;fill:#1e90ff;fill-opacity:1"
     x="18.7773"
     y="48.136417"
     id="text3"><tspan
       sodipodi:role="line"
       id="tspan3"
       style="stroke-width:0.21069;fill:#1e90ff;fill-opacity:1"
       x="18.7773"
       y="48.136417">70</tspan></text><g
     id="g5"
     transform="matrix(0.39466939,0,0,0.39466939,-29.959458,12.547611)"><g
       id="g6"
       transform="matrix(1.5157537,0,0,1.5157537,232.63947,24.962176)"><path
         d="m -23.370135,-22.364137 a 0.6062356,0.59147126 0 0 1 0.606175,0.591412 v 2.060702 l 3.989862,2.78033 a 0.6062356,0.59147126 0 0 1 0.253364,0.481676 v 2.36565 a 0.6062356,0.59147126 0 0 1 -0.606175,0.591412 H -32.46276 a 0.6062356,0.59147126 0 0 1 -0.606174,-0.591412 v -2.36565 a 0.6062356,0.59147126 0 0 1 0.253363,-0.481676 l 3.989862,-2.779175 v -2.061857 a 0.6062356,0.59147126 0 0 1 0.606174,-0.591412 z m -0.606174,1.182824 h -3.637051 v 1.774235 a 0.6062356,0.59147126 0 0 1 -0.253361,0.481679 l -3.989862,2.779175 v 1.470444 h 12.123498 v -1.470444 l -3.989862,-2.779175 a 0.6062356,0.59147126 0 0 1 -0.253362,-0.481679 z m 2.727787,11.236831 c 0.396585,0 0.728741,0.247256 0.853617,0.591411 h 1.874171 a 0.6062356,0.59147126 0 0 1 0.606173,0.5914115 V 4.249407 a 0.6062356,0.59147126 0 0 1 -0.606173,0.5914132 H -46.462797 A 0.6062356,0.59147126 0 0 1 -47.068971,4.249407 V -8.7616595 a 0.6062356,0.59147126 0 0 1 0.606174,-0.5914115 h 15.268033 c 0.124876,-0.344155 0.457033,-0.591411 0.853617,-0.591411 z m 2.121613,1.7742357 h -2.121613 -9.092625 -2.179625 v 11.828242 h 13.393863 z m -14.606213,0 h -12.1235 v 3.5484718 h 12.1235 z m 12.787688,1.1828246 a 0.6062356,0.59147126 0 0 1 0.606174,0.5914113 v 8.2797692 a 0.6062356,0.59147126 0 0 1 -0.606174,0.5914123 h -9.6988 A 0.6062356,0.59147126 0 0 1 -31.25041,1.8837588 v -8.2797692 a 0.6062356,0.59147126 0 0 1 0.606176,-0.5914113 z m -15.154376,0 a 0.6062356,0.59147126 0 1 1 0,1.1828245 h -7.2741 a 0.6062356,0.59147126 0 1 1 0,-1.1828245 z m 14.548201,1.1828245 h -8.48645 v 7.0969456 h 8.48645 z m -12.181513,2.3656473 h -12.1235 v 7.0969456 h 12.1235 z m -2.357215,1.7661505 a 0.6062356,0.59147126 0 0 1 0.596703,0.5994987 v 2.9570595 a 0.6062356,0.59147126 0 1 1 -1.21235,0 v -2.9570595 a 0.6062356,0.59147126 0 0 1 0.615647,-0.5994987 z"
         id="path1-2"
         style="fill:none;stroke:#ffffff;stroke-width:0.337113;stroke-dasharray:none;stroke-opacity:1" /></g></g></svg>
