<?xml version="1.0" encoding="UTF-8" standalone="no"?>
<!-- Uploaded to: SVG Repo, www.svgrepo.com, Generator: SVG Repo Mixer Tools -->

<svg
   width="800px"
   height="800px"
   viewBox="0 0 60.601004 60.601004"
   version="1.1"
   id="svg46"
   sodipodi:docname="particlematter.svg"
   inkscape:version="1.4 (86a8ad7, 2024-10-11)"
   xml:space="preserve"
   xmlns:inkscape="http://www.inkscape.org/namespaces/inkscape"
   xmlns:sodipodi="http://sodipodi.sourceforge.net/DTD/sodipodi-0.dtd"
   xmlns="http://www.w3.org/2000/svg"
   xmlns:svg="http://www.w3.org/2000/svg"
   xmlns:rdf="http://www.w3.org/1999/02/22-rdf-syntax-ns#"
   xmlns:cc="http://creativecommons.org/ns#"
   xmlns:dc="http://purl.org/dc/elements/1.1/"><sodipodi:namedview
     id="namedview46"
     pagecolor="#ffffff"
     bordercolor="#666666"
     borderopacity="1.0"
     inkscape:showpageshadow="2"
     inkscape:pageopacity="0.0"
     inkscape:pagecheckerboard="0"
     inkscape:deskcolor="#d1d1d1"
     showguides="true"
     inkscape:zoom="0.52325902"
     inkscape:cx="1106.5266"
     inkscape:cy="708.06233"
     inkscape:window-width="3840"
     inkscape:window-height="2080"
     inkscape:window-x="5749"
     inkscape:window-y="-11"
     inkscape:window-maximized="1"
     inkscape:current-layer="svg46"
     showgrid="false"><sodipodi:guide
       position="13.827235,17.242934"
       orientation="1,0"
       id="guide4"
       inkscape:locked="false" /><sodipodi:guide
       position="-5.3564226,6.6024733"
       orientation="0,-1"
       id="guide5"
       inkscape:locked="false" /><sodipodi:guide
       position="28.86737,56.039251"
       orientation="-1,0"
       id="guide1"
       inkscape:locked="false" /></sodipodi:namedview><defs
     id="defs1"><filter
       id="dustBlur-1"
       x="-0.024489796"
       y="-0.021686747"
       width="1.0489796"
       height="1.0433735"><feGaussianBlur
         in="SourceGraphic"
         stdDeviation="1.5"
         id="feGaussianBlur1-9" /></filter></defs><metadata
     id="metadata1"><rdf:RDF><cc:Work
         rdf:about=""><dc:format>image/svg+xml</dc:format><dc:type
           rdf:resource="http://purl.org/dc/dcmitype/StillImage" /><dc:source>http://www.ecomo.or.jp/barrierfree/pictogram/data/zukigo_panfu_jis110.pdf</dc:source></cc:Work></rdf:RDF></metadata><path
     d="m 7.7786277,56.039253 c -1.77625,0 -3.2175,-1.44 -3.2175,-3.2175 l 0,-45.0425003 c 0,-1.7775 1.44125,-3.2175 3.2175,-3.2175 l 45.0437503,0 c 1.77625,0 3.2175,1.44 3.2175,3.2175 l 0,45.0425003 c 0,1.7775 -1.44125,3.2175 -3.2175,3.2175 l -45.0437503,0 z"
     style="fill:none;stroke:#1e90ff;stroke-width:0.60625005;stroke-linecap:butt;stroke-linejoin:miter;stroke-miterlimit:4;stroke-dasharray:none;stroke-opacity:1;fill-opacity:1"
     id="path1" /><g
     id="g1"
     transform="matrix(1.0664189,0,0,1.0664189,-1.7369985,-1.697454)"><path
       d="m 32.742153,27.58222 c -0.683284,0 -1.2377,-0.553936 -1.2377,-1.2377 V 9.0176787 c 0,-0.683764 0.554416,-1.2376999 1.2377,-1.2376999 h 17.327322 c 0.683283,0 1.2377,0.5539359 1.2377,1.2376999 V 26.34452 c 0,0.683764 -0.554417,1.2377 -1.2377,1.2377 z"
       style="fill:none;fill-opacity:1;stroke:#1e90ff;stroke-width:0.233211;stroke-linecap:butt;stroke-linejoin:miter;stroke-miterlimit:4;stroke-dasharray:none;stroke-opacity:1"
       id="path1-0" /><path
       d="m 8.1119447,28.572439 c -0.7262819,0 -1.3155874,-0.588794 -1.3155874,-1.315587 V 8.8396503 c 0,-0.726794 0.5893055,-1.3155879 1.3155874,-1.3155879 H 26.529658 c 0.726282,0 1.315587,0.5887939 1.315587,1.3155879 V 27.256852 c 0,0.726793 -0.589305,1.315587 -1.315587,1.315587 z"
       style="fill:none;fill-opacity:1;stroke:#1e90ff;stroke-width:0.247887;stroke-linecap:butt;stroke-linejoin:miter;stroke-miterlimit:4;stroke-dasharray:none;stroke-opacity:1"
       id="path1-1"
       transform="matrix(0.93771778,0,0,0.93771778,2.4710552,0.79593016)" /></g><text
     xml:space="preserve"
     style="font-style:normal;font-variant:normal;font-weight:normal;font-stretch:normal;font-size:14.5442px;line-height:1.25;font-family:Sans;-inkscape-font-specification:'Sans, Normal';font-variant-ligatures:none;font-variant-caps:normal;font-variant-numeric:normal;font-variant-east-asian:normal;letter-spacing:0px;word-spacing:0px;fill:#1e90ff;fill-opacity:1;stroke-width:0.21069"
     x="34.136017"
     y="22.357555"
     id="text3"
     textAnchor="middle"><tspan
       sodipodi:role="line"
       id="tspan3"
       style="font-style:normal;font-variant:normal;font-weight:normal;font-stretch:normal;font-size:14.5442px;font-family:Sans;-inkscape-font-specification:'Sans, Normal';font-variant-ligatures:none;font-variant-caps:normal;font-variant-numeric:normal;font-variant-east-asian:normal;fill:#1e90ff;fill-opacity:1;stroke-width:0.21069"
       x="34.136017"
       y="22.357555"
       textAnchor="middle">70</tspan></text><g
     id="g6"><path
       d="m 14.149113,9.8048297 q 1.212302,0 1.766497,0.4762613 0.554195,0.476262 0.554195,1.342192 0,0.510898 -0.233801,0.961182 -0.225142,0.441624 -0.770678,0.718722 -0.536876,0.277097 -1.463421,0.277097 H 13.291842 V 15.98757 H 12.512505 V 9.8048297 Z m -0.06927,0.6667663 h -0.787996 v 2.441922 h 0.62347 q 0.883248,0 1.316213,-0.285757 0.432965,-0.285756 0.432965,-0.969841 0,-0.597492 -0.381009,-0.891908 -0.381009,-0.294416 -1.203643,-0.294416 z m 6.399219,5.515974 -2.034935,-5.420722 h -0.03464 q 0.02598,0.268438 0.0433,0.727381 0.01732,0.450284 0.01732,0.943864 V 15.98757 H 17.751378 V 9.8048297 h 1.151687 l 1.905046,5.0656903 h 0.03464 l 1.939683,-5.0656903 h 1.143027 V 15.98757 h -0.770677 v -3.801433 q 0,-0.450283 0.01732,-0.891908 0.02598,-0.441624 0.0433,-0.718722 h -0.03464 l -2.060914,5.412063 z"
       id="text3-0"
       style="font-size:8.6593px;line-height:1.25;font-family:Sans;-inkscape-font-specification:'Sans, Normal';font-variant-ligatures:none;letter-spacing:0px;word-spacing:0px;fill:#1e90ff;stroke-width:0.125441"
       aria-label="PM" /><path
       d="m 16.647319,24.074934 h -4.08719 v -0.632129 l 1.619289,-1.636608 q 0.467602,-0.467602 0.787996,-0.831292 0.320394,-0.363691 0.484921,-0.710063 0.164527,-0.355031 0.164527,-0.770678 0,-0.510898 -0.303076,-0.770677 -0.303075,-0.268439 -0.787996,-0.268439 -0.450284,0 -0.796656,0.155868 -0.337712,0.155867 -0.692744,0.432965 l -0.406987,-0.510899 q 0.363691,-0.303075 0.831293,-0.510899 0.476262,-0.216482 1.065094,-0.216482 0.86593,0 1.368169,0.441624 0.50224,0.432965 0.50224,1.203643 0,0.484921 -0.199164,0.909226 -0.199164,0.424306 -0.554195,0.839952 -0.355032,0.406988 -0.831293,0.87459 l -1.290236,1.272917 v 0.03464 h 3.126008 z m 1.073757,-0.467602 q 0,-0.320394 0.155868,-0.450284 0.155867,-0.129889 0.37235,-0.129889 0.225141,0 0.381009,0.129889 0.164526,0.12989 0.164526,0.450284 0,0.311735 -0.164526,0.450283 -0.155868,0.138549 -0.381009,0.138549 -0.216483,0 -0.37235,-0.138549 -0.155868,-0.138548 -0.155868,-0.450283 z m 4.078527,-3.325171 q 0.952523,0 1.515378,0.476261 0.562854,0.476262 0.562854,1.342192 0,0.961182 -0.61481,1.515377 -0.606151,0.545536 -1.697223,0.545536 -0.476261,0 -0.900567,-0.08659 -0.415646,-0.08659 -0.701403,-0.25112 v -0.718722 q 0.311735,0.190505 0.753359,0.303076 0.450283,0.103912 0.857271,0.103912 0.684084,0 1.099731,-0.320395 0.424305,-0.329053 0.424305,-1.013138 0,-0.606151 -0.37235,-0.926545 -0.372349,-0.329053 -1.177664,-0.329053 -0.242461,0 -0.554196,0.0433 -0.311734,0.0433 -0.502239,0.08659 l -0.381009,-0.24246 0.233801,-2.918184 h 3.100029 v 0.692744 h -2.450582 l -0.147208,1.792475 q 0.147208,-0.02598 0.398328,-0.06062 0.25112,-0.03464 0.554195,-0.03464 z"
       id="text3-0-8"
       style="font-size:8.6593px;line-height:1.25;font-family:Sans;-inkscape-font-specification:'Sans, Normal';font-variant-ligatures:none;letter-spacing:0px;word-spacing:0px;fill:#1e90ff;stroke-width:0.125441"
       aria-label="2.5" /></g></svg>
