<?xml version="1.0" encoding="UTF-8" standalone="no"?>
<!-- Uploaded to: SVG Repo, www.svgrepo.com, Generator: SVG Repo Mixer Tools -->

<svg
   width="800px"
   height="800px"
   viewBox="0 0 60.601004 60.601004"
   version="1.1"
   id="svg46"
   sodipodi:docname="Stairs.svg"
   inkscape:version="1.4 (86a8ad7, 2024-10-11)"
   xml:space="preserve"
   xmlns:inkscape="http://www.inkscape.org/namespaces/inkscape"
   xmlns:sodipodi="http://sodipodi.sourceforge.net/DTD/sodipodi-0.dtd"
   xmlns="http://www.w3.org/2000/svg"
   xmlns:svg="http://www.w3.org/2000/svg"
   xmlns:rdf="http://www.w3.org/1999/02/22-rdf-syntax-ns#"
   xmlns:cc="http://creativecommons.org/ns#"
   xmlns:dc="http://purl.org/dc/elements/1.1/"><sodipodi:namedview
     id="namedview46"
     pagecolor="#ffffff"
     bordercolor="#666666"
     borderopacity="1.0"
     inkscape:showpageshadow="2"
     inkscape:pageopacity="0.0"
     inkscape:pagecheckerboard="0"
     inkscape:deskcolor="#d1d1d1"
     showguides="true"
     inkscape:zoom="1.48"
     inkscape:cx="413.51351"
     inkscape:cy="465.2027"
     inkscape:window-width="3840"
     inkscape:window-height="2080"
     inkscape:window-x="5749"
     inkscape:window-y="-11"
     inkscape:window-maximized="1"
     inkscape:current-layer="svg46"
     showgrid="false"><sodipodi:guide
       position="13.827235,17.242934"
       orientation="1,0"
       id="guide4"
       inkscape:locked="false" /><sodipodi:guide
       position="-5.3564226,6.6024733"
       orientation="0,-1"
       id="guide5"
       inkscape:locked="false" /><sodipodi:guide
       position="28.86737,56.039251"
       orientation="-1,0"
       id="guide1"
       inkscape:locked="false" /></sodipodi:namedview><defs
     id="defs1" /><metadata
     id="metadata1"><rdf:RDF><cc:Work
         rdf:about=""><dc:format>image/svg+xml</dc:format><dc:type
           rdf:resource="http://purl.org/dc/dcmitype/StillImage" /><dc:source>http://www.ecomo.or.jp/barrierfree/pictogram/data/zukigo_panfu_jis110.pdf</dc:source></cc:Work></rdf:RDF></metadata><path
     d="m 7.7786277,56.039253 c -1.77625,0 -3.2175,-1.44 -3.2175,-3.2175 l 0,-45.0425003 c 0,-1.7775 1.44125,-3.2175 3.2175,-3.2175 l 45.0437503,0 c 1.77625,0 3.2175,1.44 3.2175,3.2175 l 0,45.0425003 c 0,1.7775 -1.44125,3.2175 -3.2175,3.2175 l -45.0437503,0 z"
     style="fill:none;stroke:#1e90ff;stroke-width:0.60625005;stroke-linecap:butt;stroke-linejoin:miter;stroke-miterlimit:4;stroke-dasharray:none;stroke-opacity:1;fill-opacity:1"
     id="path1" /><g
     id="g1"
     transform="matrix(1.0664189,0,0,1.0664189,-1.7369985,-1.697454)"><path
       d="m 32.742153,27.58222 c -0.683284,0 -1.2377,-0.553936 -1.2377,-1.2377 V 9.0176787 c 0,-0.683764 0.554416,-1.2376999 1.2377,-1.2376999 h 17.327322 c 0.683283,0 1.2377,0.5539359 1.2377,1.2376999 V 26.34452 c 0,0.683764 -0.554417,1.2377 -1.2377,1.2377 z"
       style="fill:none;fill-opacity:1;stroke:#1e90ff;stroke-width:0.233211;stroke-linecap:butt;stroke-linejoin:miter;stroke-miterlimit:4;stroke-dasharray:none;stroke-opacity:1"
       id="path1-0" /></g><g
     id="g3"
     transform="translate(0.8981815,-0.84865901)"><path
       d="m 8.1119447,28.572439 c -0.7262819,0 -1.3155874,-0.588794 -1.3155874,-1.315587 V 8.8396503 c 0,-0.726794 0.5893055,-1.3155879 1.3155874,-1.3155879 H 26.529658 c 0.726282,0 1.315587,0.5887939 1.315587,1.3155879 V 27.256852 c 0,0.726793 -0.589305,1.315587 -1.315587,1.315587 z"
       style="fill:none;fill-opacity:1;stroke:#1e90ff;stroke-width:0.247887;stroke-linecap:butt;stroke-linejoin:miter;stroke-miterlimit:4;stroke-dasharray:none;stroke-opacity:1"
       id="path1-1" /><g
       style="fill:#1e90ff;stroke:#1e90ff"
       id="g2"
       transform="matrix(0.05885535,0,0,0.05885535,7.6504837,8.3778713)"><g
         id="SVGRepo_bgCarrier"
         stroke-width="0" /><g
         id="SVGRepo_tracerCarrier"
         stroke-linecap="round"
         stroke-linejoin="round" /><g
         id="SVGRepo_iconCarrier"> <g
   id="g4"> <path
   d="m 209.306,50.798 c -2.452,-3.337 -7.147,-4.055 -10.485,-1.602 -3.338,2.453 -4.055,7.147 -1.603,10.485 54.576,74.266 66.032,123.541 66.032,151.8 0,27.691 -8.272,52.794 -23.293,70.685 -17.519,20.866 -42.972,31.446 -75.651,31.446 -73.031,0 -98.944,-55.018 -98.944,-102.131 0,-52.227 28.103,-103.234 51.679,-136.829 25.858,-36.847 52.11,-61.415 52.37,-61.657 3.035,-2.819 3.209,-7.565 0.39,-10.6 -2.819,-3.034 -7.565,-3.209 -10.599,-0.39 -1.11,1.031 -27.497,25.698 -54.254,63.765 -24.901,35.428 -54.586,89.465 -54.586,145.71 0,31.062 9.673,59.599 27.236,80.353 20.361,24.061 50.345,36.779 86.708,36.779 36.794,0 66.926,-12.726 87.139,-36.801 17.286,-20.588 26.806,-49.117 26.806,-80.33 C 278.25,156.216 240.758,93.597 209.306,50.798 Z"
   id="path1-5" /> <path
   d="m 198.43,148.146 -95.162,95.162 c -2.929,2.929 -2.929,7.678 0,10.606 1.465,1.464 3.385,2.197 5.304,2.197 1.919,0 3.839,-0.732 5.304,-2.197 l 95.162,-95.162 c 2.929,-2.929 2.929,-7.678 0,-10.606 -2.931,-2.929 -7.679,-2.929 -10.608,0 z"
   id="path2-8" /> <path
   d="m 191.965,207.899 c -13.292,0 -24.106,10.814 -24.106,24.106 0,13.292 10.814,24.106 24.106,24.106 13.292,0 24.106,-10.814 24.106,-24.106 0,-13.292 -10.814,-24.106 -24.106,-24.106 z m 0,33.212 c -5.021,0 -9.106,-4.085 -9.106,-9.106 0,-5.021 4.085,-9.106 9.106,-9.106 5.021,0 9.106,4.085 9.106,9.106 0,5.021 -4.085,9.106 -9.106,9.106 z"
   id="path3-9" /> <path
   d="m 125.178,194.162 c 13.292,0 24.106,-10.814 24.106,-24.106 0,-13.292 -10.814,-24.106 -24.106,-24.106 -13.292,0 -24.106,10.814 -24.106,24.106 0,13.292 10.814,24.106 24.106,24.106 z m 0,-33.213 c 5.021,0 9.106,4.085 9.106,9.106 0,5.021 -4.085,9.106 -9.106,9.106 -5.021,0 -9.106,-4.085 -9.106,-9.106 0,-5.021 4.084,-9.106 9.106,-9.106 z"
   id="path4-8" /> </g> </g></g></g><text
     xml:space="preserve"
     style="font-style:normal;font-variant:normal;font-weight:normal;font-stretch:normal;font-size:14.5442px;line-height:1.25;font-family:Sans;-inkscape-font-specification:'Sans, Normal';font-variant-ligatures:none;font-variant-caps:normal;font-variant-numeric:normal;font-variant-east-asian:normal;letter-spacing:0px;word-spacing:0px;fill:#1e90ff;fill-opacity:1;stroke-width:0.21069"
     x="34.136017"
     y="22.357555"
     id="text3"
     textAnchor="middle"><tspan
       sodipodi:role="line"
       id="tspan3"
       style="font-style:normal;font-variant:normal;font-weight:normal;font-stretch:normal;font-size:14.5442px;font-family:Sans;-inkscape-font-specification:'Sans, Normal';font-variant-ligatures:none;font-variant-caps:normal;font-variant-numeric:normal;font-variant-east-asian:normal;fill:#1e90ff;fill-opacity:1;stroke-width:0.21069"
       x="34.136017"
       y="22.357555"
       textAnchor="middle">70</tspan></text><g
     id="g5"
     transform="matrix(0.57276373,0,0,0.56138213,-74.738613,35.166845)"><path
       d="m 197.79153,-1.7679653 v 4.0043867 c 0,0.1174303 -0.096,0.2134384 -0.21416,0.2134384 h -0.52438 V -8.6283001 h 7.38545 c 0.40767,0 0.73854,-0.3301273 0.73854,-0.7385431 0,-0.4084146 -0.33087,-0.7385438 -0.73854,-0.7385438 h -8.124 c -0.0324,0 -0.0605,0.01477 -0.0916,0.01846 -0.0532,0.0066 -0.10485,0.01257 -0.15582,0.03102 -0.0488,0.01773 -0.0901,0.04431 -0.13294,0.070901 -0.0288,0.017728 -0.0613,0.025106 -0.0878,0.047264 l -31.40665,25.822456 c -0.31461,0.259228 -0.3604,0.724511 -0.10116,1.03913 0.14623,0.17799 0.35746,0.269568 0.5709,0.269568 0.16542,0 0.3316,-0.05467 0.46897,-0.168387 l 1.39437,-1.14622 v 10.204461 h -3.47854 c -0.93279,0 -1.69126,0.758486 -1.69126,1.690528 v 5.694913 H 205.177 V -3.4584911 h -5.69419 c -0.93277,0 -1.69125,0.7584834 -1.69125,1.6905258 z m -5.69416,4.2178251 c -0.93278,0 -1.69128,0.7584859 -1.69128,1.6905284 v 4.217825 h -0.73853 V -2.9452029 l 5.90836,-4.8581429 V 2.4498598 Z m -6.64689,5.9083534 c -0.9328,0 -1.69127,0.758484 -1.69127,1.6905248 v 4.004387 c 0,0.11743 -0.096,0.213438 -0.21418,0.213438 h -0.52436 V 2.5200219 l 5.1698,-4.2510599 V 8.3582132 Z m -7.38545,5.9083498 c -0.93277,0 -1.69127,0.758484 -1.69127,1.690528 v 4.004384 c 0,0.11743 -0.096,0.21344 -0.21418,0.21344 h -0.52436 V 8.5923312 l 5.90835,-4.858143 V 14.266563 Z m -9.81525,0.398074 5.90834,-4.8581418 V 20.174915 h -3.47852 c -0.93278,0 -1.69128,0.758483 -1.69128,1.690525 v 4.004387 c 0,0.117431 -0.096,0.213439 -0.21417,0.213439 h -0.52437 z m 35.45011,17.326981 h -40.61991 v -4.217825 c 0,-0.117431 0.096,-0.21344 0.21418,-0.21344 h 5.47999 c 0.93277,0 1.69126,-0.758485 1.69126,-1.690526 V 21.86544 c 0,-0.117429 0.096,-0.213438 0.21419,-0.213438 h 5.48073 c 0.93277,0 1.69126,-0.758484 1.69126,-1.690527 v -4.004384 c -7.4e-4,-0.11743 0.0953,-0.21344 0.21344,-0.21344 h 5.48075 c 0.93277,0 1.69125,-0.758484 1.69125,-1.690526 v -4.004387 c -7.5e-4,-0.1174308 0.0953,-0.2134378 0.21345,-0.2134378 h 6.43271 v -5.694912 c 0,-0.1174303 0.096,-0.213441 0.21418,-0.213441 h 5.48073 c 0.93279,0 1.69126,-0.7584835 1.69126,-1.6905258 v -4.0043867 c -7.2e-4,-0.1174302 0.0953,-0.2134384 0.21344,-0.2134384 h 4.21709 z"
       id="path1-65"
       style="fill:#ffffff;fill-opacity:1;stroke:#ffffff;stroke-width:0.282726;stroke-dasharray:none;stroke-opacity:1" /></g></svg>
