<?xml version="1.0" encoding="UTF-8" standalone="no"?>
<!-- Uploaded to: SVG Repo, www.svgrepo.com, Generator: SVG Repo Mixer Tools -->

<svg
   width="800px"
   height="800px"
   viewBox="0 0 60.601004 60.601004"
   version="1.1"
   id="svg46"
   sodipodi:docname="VOC.svg"
   inkscape:version="1.4 (86a8ad7, 2024-10-11)"
   xml:space="preserve"
   xmlns:inkscape="http://www.inkscape.org/namespaces/inkscape"
   xmlns:sodipodi="http://sodipodi.sourceforge.net/DTD/sodipodi-0.dtd"
   xmlns="http://www.w3.org/2000/svg"
   xmlns:svg="http://www.w3.org/2000/svg"
   xmlns:rdf="http://www.w3.org/1999/02/22-rdf-syntax-ns#"
   xmlns:cc="http://creativecommons.org/ns#"
   xmlns:dc="http://purl.org/dc/elements/1.1/"><sodipodi:namedview
     id="namedview46"
     pagecolor="#ffffff"
     bordercolor="#666666"
     borderopacity="1.0"
     inkscape:showpageshadow="2"
     inkscape:pageopacity="0.0"
     inkscape:pagecheckerboard="0"
     inkscape:deskcolor="#d1d1d1"
     showguides="true"
     inkscape:zoom="2.0930361"
     inkscape:cx="283.79826"
     inkscape:cy="393.92537"
     inkscape:window-width="3840"
     inkscape:window-height="2080"
     inkscape:window-x="5749"
     inkscape:window-y="-11"
     inkscape:window-maximized="1"
     inkscape:current-layer="g6"
     showgrid="false"><sodipodi:guide
       position="13.827235,17.242934"
       orientation="1,0"
       id="guide4"
       inkscape:locked="false" /><sodipodi:guide
       position="-5.3564226,6.6024733"
       orientation="0,-1"
       id="guide5"
       inkscape:locked="false" /><sodipodi:guide
       position="28.86737,56.039251"
       orientation="-1,0"
       id="guide1"
       inkscape:locked="false" /></sodipodi:namedview><defs
     id="defs1"><filter
       id="dustBlur-1"
       x="-0.024489796"
       y="-0.021686747"
       width="1.0489796"
       height="1.0433735"><feGaussianBlur
         in="SourceGraphic"
         stdDeviation="1.5"
         id="feGaussianBlur1-9" /></filter></defs><metadata
     id="metadata1"><rdf:RDF><cc:Work
         rdf:about=""><dc:format>image/svg+xml</dc:format><dc:type
           rdf:resource="http://purl.org/dc/dcmitype/StillImage" /><dc:source>http://www.ecomo.or.jp/barrierfree/pictogram/data/zukigo_panfu_jis110.pdf</dc:source></cc:Work></rdf:RDF></metadata><path
     d="m 7.7786277,56.039253 c -1.77625,0 -3.2175,-1.44 -3.2175,-3.2175 l 0,-45.0425003 c 0,-1.7775 1.44125,-3.2175 3.2175,-3.2175 l 45.0437503,0 c 1.77625,0 3.2175,1.44 3.2175,3.2175 l 0,45.0425003 c 0,1.7775 -1.44125,3.2175 -3.2175,3.2175 l -45.0437503,0 z"
     style="fill:none;stroke:#1e90ff;stroke-width:0.60625005;stroke-linecap:butt;stroke-linejoin:miter;stroke-miterlimit:4;stroke-dasharray:none;stroke-opacity:1;fill-opacity:1"
     id="path1" /><g
     id="g1"
     transform="matrix(1.0664189,0,0,1.0664189,-1.7369985,-1.697454)"><path
       d="m 32.742153,27.58222 c -0.683284,0 -1.2377,-0.553936 -1.2377,-1.2377 V 9.0176787 c 0,-0.683764 0.554416,-1.2376999 1.2377,-1.2376999 h 17.327322 c 0.683283,0 1.2377,0.5539359 1.2377,1.2376999 V 26.34452 c 0,0.683764 -0.554417,1.2377 -1.2377,1.2377 z"
       style="fill:none;fill-opacity:1;stroke:#1e90ff;stroke-width:0.233211;stroke-linecap:butt;stroke-linejoin:miter;stroke-miterlimit:4;stroke-dasharray:none;stroke-opacity:1"
       id="path1-0" /><path
       d="m 8.1119447,28.572439 c -0.7262819,0 -1.3155874,-0.588794 -1.3155874,-1.315587 V 8.8396503 c 0,-0.726794 0.5893055,-1.3155879 1.3155874,-1.3155879 H 26.529658 c 0.726282,0 1.315587,0.5887939 1.315587,1.3155879 V 27.256852 c 0,0.726793 -0.589305,1.315587 -1.315587,1.315587 z"
       style="fill:none;fill-opacity:1;stroke:#1e90ff;stroke-width:0.247887;stroke-linecap:butt;stroke-linejoin:miter;stroke-miterlimit:4;stroke-dasharray:none;stroke-opacity:1"
       id="path1-1"
       transform="matrix(0.93771778,0,0,0.93771778,2.4710552,0.79593016)" /></g><text
     xml:space="preserve"
     style="font-style:normal;font-variant:normal;font-weight:normal;font-stretch:normal;font-size:14.5442px;line-height:1.25;font-family:Sans;-inkscape-font-specification:'Sans, Normal';font-variant-ligatures:none;font-variant-caps:normal;font-variant-numeric:normal;font-variant-east-asian:normal;letter-spacing:0px;word-spacing:0px;fill:#1e90ff;fill-opacity:1;stroke-width:0.21069"
     x="34.136017"
     y="22.357555"
     id="text3"
     textAnchor="middle"><tspan
       sodipodi:role="line"
       id="tspan3"
       style="font-style:normal;font-variant:normal;font-weight:normal;font-stretch:normal;font-size:14.5442px;font-family:Sans;-inkscape-font-specification:'Sans, Normal';font-variant-ligatures:none;font-variant-caps:normal;font-variant-numeric:normal;font-variant-east-asian:normal;fill:#1e90ff;fill-opacity:1;stroke-width:0.21069"
       x="34.136017"
       y="22.357555"
       textAnchor="middle">70</tspan></text><style
     type="text/css"
     id="style1">
	.scienceandfiction_twee{fill:#CC2954;}
	.scienceandfiction_een{fill:#2B4099;}
</style><g
     id="g6"
     transform="matrix(0.64007475,0,0,0.64007475,8.9038334,6.6383576)"><path
       class="scienceandfiction_twee"
       d="m 22,11 v 1 h -4 v -1 z m -5,0 h -1 v 1 h 1 z m 11,0 h -3 v 1 h 3 z m 0,-4 h -3 v 1 h 3 z m 2,2 h -3 v 1 h 3 z m -6,2 h -1 v 1 h 1 z m 0,-4 h -1 v 1 h 1 z m -6,2 h -3 v 1 h 3 z m 2,0 h -1 v 1 h 1 z m -7,0 h -1 v 1 h 1 z m 9,-2 h -4 v 1 h 4 z m -5,0 h -1 v 1 h 1 z m 7,2 h -3 v 1 h 3 z m 2,0 h -1 v 1 h 1 z"
       id="path1-8" /><path
       class="scienceandfiction_een"
       d="M 20.667,16 20,14 H 14.998 V 11 H 14 V 7 H 10 V 9 H 7.95 C 7.705,7.306 6.262,6 4.5,6 2.567,6 1,7.567 1,9.5 1,11.433 2.567,13 4.5,13 6.262,13 7.705,11.694 7.95,10 H 10 v 1 H 9 v 3 H 4 L 3.333,16 H 3 v 9 H 3.333 L 4,27 h 16 l 0.667,-2 H 21 V 16 Z M 4.5,12 C 3.122,12 2,10.878 2,9.5 2,8.122 3.122,7 4.5,7 5.878,7 7,8.122 7,9.5 7,10.878 5.878,12 4.5,12 Z M 11,8 h 2 v 3 H 11 Z M 9.998,12 H 10 14 v 2 H 9.998 Z m -5.277,3 h 14.558 l 0.333,1 H 4.387 Z M 19.279,26 H 4.721 L 4.388,25 H 19.613 Z M 20,24 H 4 v -7 h 16 z"
       id="path2"
       style="fill:#c75b5b;fill-opacity:1" /><path
       d="M 9.4215168,18.051034 7.7842117,22.635489 H 7.2063394 L 5.5690343,18.051034 h 0.6035554 l 1.0337497,2.940729 q 0.102733,0.282515 0.1733616,0.532927 0.070629,0.24399 0.1155745,0.468718 0.044947,-0.224728 0.1155746,-0.475139 0.070629,-0.250412 0.1733616,-0.539348 l 1.0273287,-2.927887 z m 4.5587722,2.285807 q 0,0.712709 -0.24399,1.245636 -0.23757,0.526505 -0.706289,0.821863 -0.468719,0.295357 -1.162166,0.295357 -0.712709,0 -1.187848,-0.295357 -0.468719,-0.295358 -0.6998683,-0.828284 -0.2311486,-0.532927 -0.2311486,-1.245636 0,-0.706289 0.2311486,-1.232794 0.2311493,-0.526506 0.6998683,-0.821864 0.475139,-0.295357 1.194269,-0.295357 0.687026,0 1.155745,0.295357 0.468719,0.288937 0.706289,0.821864 0.24399,0.526505 0.24399,1.239215 z m -3.621334,0 q 0,0.866808 0.365986,1.367631 0.365986,0.494402 1.142903,0.494402 0.783338,0 1.142904,-0.494402 0.359564,-0.500823 0.359564,-1.367631 0,-0.866809 -0.359564,-1.35479 -0.359566,-0.494402 -1.136483,-0.494402 -0.776917,0 -1.149324,0.494402 -0.365986,0.487981 -0.365986,1.35479 z m 6.60059,-1.842771 q -0.738396,0 -1.162167,0.494402 -0.423771,0.494402 -0.423771,1.354789 0,0.853967 0.391666,1.35479 0.398092,0.494402 1.187851,0.494402 0.301777,0 0.571449,-0.05137 0.269678,-0.05137 0.526508,-0.128416 v 0.500823 q -0.25683,0.09631 -0.532929,0.141257 -0.269672,0.04495 -0.648501,0.04495 -0.699865,0 -1.168583,-0.288936 -0.468723,-0.288936 -0.70629,-0.821863 -0.23115,-0.532927 -0.23115,-1.252057 0,-0.693447 0.250412,-1.219952 0.256831,-0.532927 0.751233,-0.828285 0.494402,-0.301777 1.200693,-0.301777 0.725548,0 1.264898,0.269673 l -0.231152,0.487982 q -0.211882,-0.09631 -0.475139,-0.173362 -0.25683,-0.07705 -0.565028,-0.07705 z"
       id="text3-3"
       style="font-size:12.1596px;line-height:1.25;font-family:Sans;-inkscape-font-specification:'Sans, Normal';font-variant-ligatures:none;letter-spacing:0px;word-spacing:0px;fill:#7c1c1c;fill-opacity:1;stroke-width:0.0930128"
       aria-label="VOC"
       inkscape:label="text3-3" /></g></svg>
