<?xml version="1.0" encoding="UTF-8" standalone="no"?>
<!-- Uploaded to: SVG Repo, www.svgrepo.com, Generator: SVG Repo Mixer Tools -->

<svg
   width="800px"
   height="800px"
   viewBox="0 0 60.601004 60.601004"
   version="1.1"
   id="svg46"
   sodipodi:docname="VOC2.svg"
   inkscape:version="1.4 (86a8ad7, 2024-10-11)"
   xml:space="preserve"
   xmlns:inkscape="http://www.inkscape.org/namespaces/inkscape"
   xmlns:sodipodi="http://sodipodi.sourceforge.net/DTD/sodipodi-0.dtd"
   xmlns="http://www.w3.org/2000/svg"
   xmlns:svg="http://www.w3.org/2000/svg"
   xmlns:rdf="http://www.w3.org/1999/02/22-rdf-syntax-ns#"
   xmlns:cc="http://creativecommons.org/ns#"
   xmlns:dc="http://purl.org/dc/elements/1.1/"><sodipodi:namedview
     id="namedview46"
     pagecolor="#ffffff"
     bordercolor="#666666"
     borderopacity="1.0"
     inkscape:showpageshadow="2"
     inkscape:pageopacity="0.0"
     inkscape:pagecheckerboard="0"
     inkscape:deskcolor="#d1d1d1"
     showguides="true"
     inkscape:zoom="2.0930361"
     inkscape:cx="283.79826"
     inkscape:cy="393.92537"
     inkscape:window-width="3840"
     inkscape:window-height="2080"
     inkscape:window-x="5749"
     inkscape:window-y="-11"
     inkscape:window-maximized="1"
     inkscape:current-layer="svg46"
     showgrid="false"><sodipodi:guide
       position="13.827235,17.242934"
       orientation="1,0"
       id="guide4"
       inkscape:locked="false" /><sodipodi:guide
       position="-5.3564226,6.6024733"
       orientation="0,-1"
       id="guide5"
       inkscape:locked="false" /><sodipodi:guide
       position="28.86737,56.039251"
       orientation="-1,0"
       id="guide1"
       inkscape:locked="false" /></sodipodi:namedview><defs
     id="defs1"><filter
       id="dustBlur-1"
       x="-0.024489796"
       y="-0.021686747"
       width="1.0489796"
       height="1.0433735"><feGaussianBlur
         in="SourceGraphic"
         stdDeviation="1.5"
         id="feGaussianBlur1-9" /></filter></defs><metadata
     id="metadata1"><rdf:RDF><cc:Work
         rdf:about=""><dc:format>image/svg+xml</dc:format><dc:type
           rdf:resource="http://purl.org/dc/dcmitype/StillImage" /><dc:source>http://www.ecomo.or.jp/barrierfree/pictogram/data/zukigo_panfu_jis110.pdf</dc:source></cc:Work></rdf:RDF></metadata><path
     d="m 7.7786277,56.039253 c -1.77625,0 -3.2175,-1.44 -3.2175,-3.2175 l 0,-45.0425003 c 0,-1.7775 1.44125,-3.2175 3.2175,-3.2175 l 45.0437503,0 c 1.77625,0 3.2175,1.44 3.2175,3.2175 l 0,45.0425003 c 0,1.7775 -1.44125,3.2175 -3.2175,3.2175 l -45.0437503,0 z"
     style="fill:none;stroke:#1e90ff;stroke-width:0.60625005;stroke-linecap:butt;stroke-linejoin:miter;stroke-miterlimit:4;stroke-dasharray:none;stroke-opacity:1;fill-opacity:1"
     id="path1" /><path
     d="m 33.179852,27.716747 c -0.728667,0 -1.319906,-0.590728 -1.319906,-1.319907 V 7.919169 c 0,-0.7291789 0.591239,-1.3199066 1.319906,-1.3199066 h 18.478184 c 0.728666,0 1.319907,0.5907277 1.319907,1.3199066 V 26.39684 c 0,0.729179 -0.591241,1.319907 -1.319907,1.319907 z"
     style="fill:none;fill-opacity:1;stroke:#1e90ff;stroke-width:0.248701;stroke-linecap:butt;stroke-linejoin:miter;stroke-miterlimit:4;stroke-dasharray:none;stroke-opacity:1"
     id="path1-0" /><path
     d="m 9.0101262,27.72378 c -0.7262819,0 -1.3155874,-0.588794 -1.3155874,-1.315587 V 7.9909913 c 0,-0.726794 0.5893055,-1.3155879 1.3155874,-1.3155879 H 27.427839 c 0.726282,0 1.315587,0.5887939 1.315587,1.3155879 V 26.408193 c 0,0.726793 -0.589305,1.315587 -1.315587,1.315587 z"
     style="fill:none;fill-opacity:1;stroke:#1e90ff;stroke-width:0.247887;stroke-linecap:butt;stroke-linejoin:miter;stroke-miterlimit:4;stroke-dasharray:none;stroke-opacity:1"
     id="path1-1" /><text
     xml:space="preserve"
     style="font-style:normal;font-variant:normal;font-weight:normal;font-stretch:normal;font-size:14.5442px;line-height:1.25;font-family:Sans;-inkscape-font-specification:'Sans, Normal';font-variant-ligatures:none;font-variant-caps:normal;font-variant-numeric:normal;font-variant-east-asian:normal;letter-spacing:0px;word-spacing:0px;fill:#1e90ff;fill-opacity:1;stroke-width:0.21069"
     x="34.136017"
     y="22.357555"
     id="text3"
     textAnchor="middle"><tspan
       sodipodi:role="line"
       id="tspan3"
       style="font-style:normal;font-variant:normal;font-weight:normal;font-stretch:normal;font-size:14.5442px;font-family:Sans;-inkscape-font-specification:'Sans, Normal';font-variant-ligatures:none;font-variant-caps:normal;font-variant-numeric:normal;font-variant-east-asian:normal;fill:#1e90ff;fill-opacity:1;stroke-width:0.21069"
       x="34.136017"
       y="22.357555"
       textAnchor="middle">70</tspan></text><style
     type="text/css"
     id="style1">
	.scienceandfiction_twee{fill:#CC2954;}
	.scienceandfiction_een{fill:#2B4099;}
</style><path
     d="m 14.518613,13.782025 -2.44454,6.844717 h -0.86278 L 8.7667544,13.782025 h 0.901124 l 1.5434146,4.39059 q 0.153391,0.421804 0.258833,0.795674 0.10545,0.364285 0.172564,0.699811 0.06711,-0.335526 0.172564,-0.709397 0.105451,-0.373871 0.258835,-0.805262 l 1.53383,-4.371416 z m 6.806372,3.412774 q 0,1.064094 -0.364285,1.859768 -0.354697,0.786087 -1.054507,1.227065 -0.699812,0.440975 -1.735147,0.440975 -1.064094,0 -1.773489,-0.440975 -0.699809,-0.440978 -1.044922,-1.236652 -0.345113,-0.795673 -0.345113,-1.859768 0,-1.05451 0.345113,-1.840594 0.345113,-0.78609 1.044922,-1.227067 0.709395,-0.440975 1.783076,-0.440975 1.025748,0 1.72556,0.440975 0.69981,0.43139 1.054507,1.227067 0.364285,0.786084 0.364285,1.850181 z m -5.406749,0 q 0,1.294168 0.546425,2.041911 0.546427,0.738155 1.706385,0.738155 1.169545,0 1.706387,-0.738155 0.536839,-0.747743 0.536839,-2.041911 0,-1.294171 -0.536839,-2.022738 -0.536842,-0.738156 -1.6968,-0.738156 -1.159959,0 -1.715972,0.738156 -0.546425,0.728567 -0.546425,2.022738 z m 9.85486,-2.751307 q -1.102446,0 -1.735147,0.738155 -0.632701,0.738155 -0.632701,2.022736 0,1.274997 0.584766,2.022739 0.594363,0.738155 1.773495,0.738155 0.450562,0 0.853189,-0.0767 0.402637,-0.0767 0.786089,-0.191739 v 0.747743 q -0.383452,0.143781 -0.795675,0.210911 -0.402628,0.06711 -0.96823,0.06711 -1.044918,0 -1.744728,-0.431388 -0.699814,-0.43139 -1.05451,-1.227065 -0.345112,-0.795674 -0.345112,-1.869354 0,-1.035336 0.373871,-1.821424 0.383456,-0.795673 1.121611,-1.23665 0.738157,-0.450563 1.792669,-0.450563 1.083264,0 1.888527,0.40263 l -0.345117,0.72857 q -0.316345,-0.1438 -0.709395,-0.258831 -0.383456,-0.115038 -0.843602,-0.115038 z"
     id="text3-3"
     style="font-size:12.1596px;line-height:1.25;font-family:Sans;-inkscape-font-specification:'Sans, Normal';font-variant-ligatures:none;letter-spacing:0px;word-spacing:0px;fill:#ffffff;fill-opacity:1;stroke-width:0.138871"
     aria-label="VOC"
     inkscape:label="text3-3" /></svg>
