<?xml version="1.0" encoding="UTF-8" standalone="no"?>
<!-- Uploaded to: SVG Repo, www.svgrepo.com, Generator: SVG Repo Mixer Tools -->

<svg
   width="800px"
   height="800px"
   viewBox="0 0 60.601004 60.601004"
   version="1.1"
   id="svg46"
   sodipodi:docname="exercise.svg"
   inkscape:version="1.4 (86a8ad7, 2024-10-11)"
   xmlns:inkscape="http://www.inkscape.org/namespaces/inkscape"
   xmlns:sodipodi="http://sodipodi.sourceforge.net/DTD/sodipodi-0.dtd"
   xmlns="http://www.w3.org/2000/svg"
   xmlns:svg="http://www.w3.org/2000/svg"
   xmlns:rdf="http://www.w3.org/1999/02/22-rdf-syntax-ns#"
   xmlns:cc="http://creativecommons.org/ns#"
   xmlns:dc="http://purl.org/dc/elements/1.1/">
  <sodipodi:namedview
     id="namedview46"
     pagecolor="#ffffff"
     bordercolor="#666666"
     borderopacity="1.0"
     inkscape:showpageshadow="2"
     inkscape:pageopacity="0.0"
     inkscape:pagecheckerboard="0"
     inkscape:deskcolor="#d1d1d1"
     showguides="true"
     inkscape:zoom="1.48"
     inkscape:cx="87.837838"
     inkscape:cy="397.97297"
     inkscape:window-width="3840"
     inkscape:window-height="2080"
     inkscape:window-x="5749"
     inkscape:window-y="-11"
     inkscape:window-maximized="1"
     inkscape:current-layer="svg46">
    <sodipodi:guide
       position="-8.5987911,10.083106"
       orientation="0,-1"
       id="guide47"
       inkscape:locked="false" />
  </sodipodi:namedview>
  <defs
     id="defs1" />
  <metadata
     id="metadata1">
    <rdf:RDF>
      <cc:Work
         rdf:about="">
        <dc:format>image/svg+xml</dc:format>
        <dc:type
           rdf:resource="http://purl.org/dc/dcmitype/StillImage" />
        <dc:source>http://www.ecomo.or.jp/barrierfree/pictogram/data/zukigo_panfu_jis110.pdf</dc:source>
      </cc:Work>
    </rdf:RDF>
  </metadata>
  <path
     d="m 7.7786277,56.039253 c -1.77625,0 -3.2175,-1.44 -3.2175,-3.2175 l 0,-45.0425003 c 0,-1.7775 1.44125,-3.2175 3.2175,-3.2175 l 45.0437503,0 c 1.77625,0 3.2175,1.44 3.2175,3.2175 l 0,45.0425003 c 0,1.7775 -1.44125,3.2175 -3.2175,3.2175 l -45.0437503,0 z"
     style="fill:none;stroke:#1e90ff;stroke-width:0.60625005;stroke-linecap:butt;stroke-linejoin:miter;stroke-miterlimit:4;stroke-dasharray:none;stroke-opacity:1;fill-opacity:1"
     id="path1" />
  <g
     id="SVGRepo_iconCarrier"
     transform="matrix(0.04411212,0,0,0.04411212,7.356154,9.6440081)"
     style="fill:#1e90ff;fill-opacity:1">
    <g
       id="g4"
       style="fill:#1e90ff;fill-opacity:1">
      <path
         d="m 209.306,50.798 c -2.452,-3.337 -7.147,-4.055 -10.485,-1.602 -3.338,2.453 -4.055,7.147 -1.603,10.485 54.576,74.266 66.032,123.541 66.032,151.8 0,27.691 -8.272,52.794 -23.293,70.685 -17.519,20.866 -42.972,31.446 -75.651,31.446 -73.031,0 -98.944,-55.018 -98.944,-102.131 0,-52.227 28.103,-103.234 51.679,-136.829 25.858,-36.847 52.11,-61.415 52.37,-61.657 3.035,-2.819 3.209,-7.565 0.39,-10.6 -2.819,-3.034 -7.565,-3.209 -10.599,-0.39 -1.11,1.031 -27.497,25.698 -54.254,63.765 -24.901,35.428 -54.586,89.465 -54.586,145.71 0,31.062 9.673,59.599 27.236,80.353 20.361,24.061 50.345,36.779 86.708,36.779 36.794,0 66.926,-12.726 87.139,-36.801 17.286,-20.588 26.806,-49.117 26.806,-80.33 C 278.25,156.216 240.758,93.597 209.306,50.798 Z"
         id="path1-6"
         style="fill:#1e90ff;fill-opacity:1" />
      <path
         d="m 198.43,148.146 -95.162,95.162 c -2.929,2.929 -2.929,7.678 0,10.606 1.465,1.464 3.385,2.197 5.304,2.197 1.919,0 3.839,-0.732 5.304,-2.197 l 95.162,-95.162 c 2.929,-2.929 2.929,-7.678 0,-10.606 -2.931,-2.929 -7.679,-2.929 -10.608,0 z"
         id="path2-0"
         style="fill:#1e90ff;fill-opacity:1" />
      <path
         d="m 191.965,207.899 c -13.292,0 -24.106,10.814 -24.106,24.106 0,13.292 10.814,24.106 24.106,24.106 13.292,0 24.106,-10.814 24.106,-24.106 0,-13.292 -10.814,-24.106 -24.106,-24.106 z m 0,33.212 c -5.021,0 -9.106,-4.085 -9.106,-9.106 0,-5.021 4.085,-9.106 9.106,-9.106 5.021,0 9.106,4.085 9.106,9.106 0,5.021 -4.085,9.106 -9.106,9.106 z"
         id="path3-3"
         style="fill:#1e90ff;fill-opacity:1" />
      <path
         d="m 125.178,194.162 c 13.292,0 24.106,-10.814 24.106,-24.106 0,-13.292 -10.814,-24.106 -24.106,-24.106 -13.292,0 -24.106,10.814 -24.106,24.106 0,13.292 10.814,24.106 24.106,24.106 z m 0,-33.213 c 5.021,0 9.106,4.085 9.106,9.106 0,5.021 -4.085,9.106 -9.106,9.106 -5.021,0 -9.106,-4.085 -9.106,-9.106 0,-5.021 4.084,-9.106 9.106,-9.106 z"
         id="path4-8"
         style="fill:#1e90ff;fill-opacity:1" />
    </g>
  </g>
  <text
     xml:space="preserve"
     style="font-style:normal;font-variant:normal;font-weight:normal;font-stretch:normal;font-size:7.27212px;line-height:1.25;font-family:Sans;-inkscape-font-specification:'Sans, Normal';font-variant-ligatures:none;font-variant-caps:normal;font-variant-numeric:normal;font-variant-east-asian:normal;letter-spacing:0px;word-spacing:0px;fill:#ffffff;fill-opacity:1;stroke:#1e90ff;stroke-width:0.0757513;stroke-opacity:1"
     x="10.59054"
     y="30.383009"
     id="text47"><tspan
       sodipodi:role="line"
       id="tspan47"
       style="font-style:normal;font-variant:normal;font-weight:normal;font-stretch:normal;font-size:7.27212px;font-family:Sans;-inkscape-font-specification:'Sans, Normal';font-variant-ligatures:none;font-variant-caps:normal;font-variant-numeric:normal;font-variant-east-asian:normal;fill:#ffffff;fill-opacity:1;stroke:#1e90ff;stroke-width:0.0757513;stroke-opacity:1"
       x="10.59054"
       y="30.383009">70</tspan></text>
  <circle
     class="cls-1"
     cx="-45.251835"
     cy="35.610371"
     r="7.449862"
     id="circle1"
     transform="scale(-1,1)"
     style="fill:none;stroke:#ffffff;stroke-width:2.98306px;stroke-miterlimit:10;stroke-opacity:1" />
  <circle
     class="cls-1"
     cx="-26.619373"
     cy="39.343113"
     r="3.7327397"
     id="circle2"
     transform="scale(-1,1)"
     style="fill:none;stroke:#ffffff;stroke-width:2.98306px;stroke-miterlimit:10;stroke-opacity:1" />
  <polyline
     class="cls-1"
     points="6.27 13.91 8.18 13.91 18.68 13.91"
     id="polyline2"
     transform="matrix(-1.5618158,0,0,1.5618158,55.044422,13.885513)"
     style="fill:none;stroke:#ffffff;stroke-width:1.91px;stroke-miterlimit:10;stroke-opacity:1" />
  <line
     class="cls-1"
     x1="45.251835"
     y1="43.060234"
     x2="25.869701"
     y2="43.060234"
     id="line2"
     style="fill:none;stroke:#ffffff;stroke-width:2.98306px;stroke-miterlimit:10;stroke-opacity:1" />
  <line
     class="cls-1"
     x1="25.869701"
     y1="23.678097"
     x2="25.869701"
     y2="35.610371"
     id="line3"
     style="fill:none;stroke:#ffffff;stroke-width:2.98306px;stroke-miterlimit:10;stroke-opacity:1" />
  <line
     class="cls-1"
     x1="45.251835"
     y1="17.711962"
     x2="45.251835"
     y2="28.160509"
     id="line4"
     style="fill:none;stroke:#ffffff;stroke-width:2.98306px;stroke-miterlimit:10;stroke-opacity:1" />
  <polyline
     class="cls-1"
     points="0.55 1.5 2.46 1.5 10.09 4.36"
     id="polyline4"
     transform="matrix(-1.5618158,0,0,1.5618158,55.044422,13.885513)"
     style="fill:none;stroke:#ffffff;stroke-width:1.91px;stroke-miterlimit:10;stroke-opacity:1" />
  <line
     class="cls-1"
     x1="45.251835"
     y1="43.060234"
     x2="48.234901"
     y2="49.026367"
     id="line5"
     style="fill:none;stroke:#ffffff;stroke-width:2.98306px;stroke-miterlimit:10;stroke-opacity:1" />
  <line
     class="cls-1"
     x1="25.869701"
     y1="43.060234"
     x2="25.869701"
     y2="49.026367"
     id="line6"
     style="fill:none;stroke:#ffffff;stroke-width:2.98306px;stroke-miterlimit:10;stroke-opacity:1" />
  <line
     class="cls-1"
     x1="18.41984"
     y1="49.026367"
     x2="54.185425"
     y2="49.026367"
     id="line7"
     style="fill:none;stroke:#1e90ff;stroke-width:2.98306px;stroke-miterlimit:10;stroke-opacity:1" />
  <path
     class="cls-1"
     d="m 21.38729,22.194374 v 0 a 5.1227559,5.1227559 0 0 0 3.607796,1.483725 h 5.341409"
     id="path7"
     style="fill:none;stroke:#ffffff;stroke-width:2.98306px;stroke-miterlimit:10;stroke-opacity:1" />
  <circle
     class="cls-1"
     cx="-45.251835"
     cy="35.610371"
     r="1.483725"
     id="circle7"
     transform="scale(-1,1)"
     style="fill:none;stroke:#ffffff;stroke-width:2.98306px;stroke-miterlimit:10;stroke-opacity:1" />
</svg>
