<?xml version="1.0" encoding="UTF-8" standalone="no"?>
<!-- Created with Inkscape (http://www.inkscape.org/) -->

<svg
   width="300mm"
   height="300mm"
   viewBox="0 0 300 300"
   version="1.1"
   id="svg1"
   inkscape:version="1.4 (86a8ad7, 2024-10-11)"
   sodipodi:docname="mvhr-mode-control.svg"
   xmlns:inkscape="http://www.inkscape.org/namespaces/inkscape"
   xmlns:sodipodi="http://sodipodi.sourceforge.net/DTD/sodipodi-0.dtd"
   xmlns="http://www.w3.org/2000/svg"
   xmlns:svg="http://www.w3.org/2000/svg">
  <sodipodi:namedview
     id="namedview1"
     pagecolor="#ffffff"
     bordercolor="#666666"
     borderopacity="1.0"
     inkscape:showpageshadow="2"
     inkscape:pageopacity="0.0"
     inkscape:pagecheckerboard="0"
     inkscape:deskcolor="#d1d1d1"
     inkscape:document-units="mm"
     inkscape:zoom="0.36747685"
     inkscape:cx="2204.2205"
     inkscape:cy="1240.8945"
     inkscape:window-width="2880"
     inkscape:window-height="1541"
     inkscape:window-x="11509"
     inkscape:window-y="621"
     inkscape:window-maximized="1"
     inkscape:current-layer="layer1"
     showgrid="false" />
  <defs
     id="defs1" />
  <g
     inkscape:label="Layer 1"
     inkscape:groupmode="layer"
     id="layer1">
    <path
       style="fill:none;stroke:#000000;stroke-width:0.264583px;stroke-linecap:butt;stroke-linejoin:miter;stroke-opacity:1;fill-opacity:1"
       d="M 271.24355652982143 220 A 140 140 0 0 1 28.75644347017858 220 L 80.7179676972449 190 A 80 80 0 0 0 219.2820323027551 190 Z"
       id="path1"
       inkscape:label="bottom" />
    <path
       style="fill:none;stroke:#000000;stroke-width:0.264583px;stroke-linecap:butt;stroke-linejoin:miter;stroke-opacity:1;fill-opacity:1"
       d="M 150 10 A 140 140 0 0 1 271.24355652982143 220 L 219.2820323027551 190 A 80 80 0 0 0 150 70 Z"
       id="path2"
       inkscape:label="right" />
    <path
       style="fill:none;stroke:#000000;stroke-width:0.264583px;stroke-linecap:butt;stroke-linejoin:miter;stroke-opacity:1;fill-opacity:1"
       d="M 28.75644347017858 220 A 140 140 0 0 1 149.99999999999997 10 L 149.99999999999997 70 A 80 80 0 0 0 80.7179676972449 190 Z"
       id="path3"
       inkscape:label="left" />
    <path
       style="fill:none;fill-opacity:1;stroke:#000000;stroke-width:0.264583px;stroke-linecap:butt;stroke-linejoin:miter;stroke-opacity:1"
       d="M 28.756443,220 C 3.7478519,176.68385 3.7478525,123.31615 28.756444,80 53.765035,36.683849 99.982817,10 150,10"
       id="path5"
       inkscape:label="left arch"
       sodipodi:nodetypes="csc"
       inkscape:transform-center-x="69.867708"
       inkscape:transform-center-y="-21.301785" />
    <path
       style="font-size:50.8px;line-height:1.25;font-family:Sans;-inkscape-font-specification:'Sans, Normal';font-variant-ligatures:none;letter-spacing:0px;word-spacing:0px;text-anchor:middle;stroke-width:0.264583"
       d="m 57.870876,154.44998 -31.473542,12.77587 0.0054,0.20312 q 1.570213,-0.19404 4.258978,-0.3669 2.637984,-0.17151 5.532569,-0.24818 l 21.988687,-0.58245 0.111646,4.21493 -36.258482,0.96042 -0.178903,-6.75403 29.41165,-11.95898 -0.0054,-0.20313 -30.00889,-10.58831 -0.177558,-6.70325 36.258482,-0.96042 0.119717,4.51961 -22.29338,0.59052 q -2.640674,0.0699 -5.233256,0.037 -2.593927,-0.0837 -4.221647,-0.14226 l 0.0054,0.20312 32.059009,11.24546 z m -20.183513,-67.744348 28.193366,26.240048 -1.807776,4.19942 -38.437432,-2.44333 1.888122,-4.38606 24.604293,1.68727 q 2.374432,0.13724 4.415131,0.40735 1.994039,0.25002 3.767752,0.62642 -1.492503,-1.02965 -3.091301,-2.32628 -1.598799,-1.29663 -3.377126,-2.94708 L 35.779155,91.138354 Z M 93.791848,77.245971 90.562196,80.4821 78.588518,68.532389 65.454601,81.692649 77.42828,93.64236 74.198628,96.878489 48.525335,71.256586 51.754986,68.020457 62.613998,78.857732 75.747915,65.697473 64.888903,54.860197 68.118555,51.624068 Z m 3.365244,-42.48595 q 6.192638,-2.701874 10.162058,-1.607087 3.99566,1.02791 6.06777,5.777155 1.15795,2.653989 0.95213,4.849927 -0.20582,2.195938 -1.2751,3.937236 -1.04304,1.674422 -2.45515,3.011052 l 15.62675,10.91788 -4.88893,2.133059 -14.04797,-10.221091 -6.61169,2.884708 5.99288,13.735559 -4.19051,1.828336 -14.504798,-33.24471 z m 1.351752,3.733349 -4.749244,2.072114 5.383433,12.338723 4.982047,-2.173688 q 4.05083,-1.767392 5.22257,-4.163067 1.15143,-2.442236 -0.20966,-5.561838 -1.42204,-3.259285 -3.96674,-3.756337 -2.56502,-0.543613 -6.662406,1.244093 z"
       id="text6"
       inkscape:label="mvhr"
       aria-label="MVHR" />
    <path
       style="font-size:50.8px;line-height:1.25;font-family:Sans;-inkscape-font-specification:'Sans, Normal';font-variant-ligatures:none;letter-spacing:0px;word-spacing:0px;text-anchor:middle;stroke-width:0.264583"
       d="m 188.55435,29.399608 q 6.78071,2.145338 9.03765,5.789915 2.25695,3.644577 0.72456,8.487944 -0.9041,2.857586 -3.00865,4.962393 -2.04079,2.071697 -5.58248,2.656172 -3.49325,0.599799 -8.67565,-1.039852 l -3.97156,-1.256555 -4.26003,13.464559 -4.35903,-1.379146 10.94122,-34.581636 z m -1.56741,3.606801 -4.40746,-1.394469 -4.32132,13.658293 3.48722,1.103316 q 4.94023,1.563032 7.8676,0.730913 2.92737,-0.832118 4.13796,-4.658378 1.05734,-3.341923 -0.55273,-5.662916 -1.61007,-2.320994 -6.21127,-3.776759 z m 40.09726,45.758744 q -2.3423,2.940277 -5.43346,4.374706 -3.05951,1.394695 -6.63083,0.822902 -3.49994,-0.579874 -7.27462,-3.586877 -5.28455,-4.209804 -5.7869,-9.2863 -0.43097,-5.084577 3.3357,-9.812861 l 14.56022,-18.277399 3.57602,2.84874 -14.65518,18.396599 q -2.75379,3.456812 -2.44537,6.820041 0.34814,3.394882 4.08309,6.370232 3.85415,3.070308 7.17697,2.404965 3.39421,-0.673424 5.95808,-3.891835 l 14.62353,-18.356866 3.53628,2.817087 z m 34.44316,8.432093 q 3.35951,5.861965 2.70304,9.926918 -0.58714,4.083766 -5.08279,6.660236 -2.51227,1.43979 -4.71756,1.47408 -2.2053,0.0343 -4.05258,-0.83922 -1.77796,-0.85469 -3.26027,-2.11302 l -9.15312,16.72172 -2.65224,-4.62787 8.63221,-15.076502 -3.58685,-6.258639 -13.0021,7.451541 -2.27335,-3.96674 31.46949,-18.035264 z m -3.56414,1.749864 -2.57647,-4.495642 -11.67985,6.693761 2.70276,4.716017 q 2.19758,3.834518 4.7065,4.738694 2.553,0.87891 5.50602,-0.813471 3.08525,-1.768163 3.30252,-4.351834 0.26135,-2.608931 -1.96148,-6.487525 z m 2.74708,48.90192 1.67983,12.43464 -17.61994,2.38033 q -1.35097,-2.79066 -2.20531,-5.69967 -0.85434,-2.90901 -1.36441,-6.68471 -0.7549,-5.58804 0.94331,-9.71333 1.74855,-4.13209 5.60461,-6.70347 3.91321,-2.52784 9.60193,-3.29635 5.63839,-0.7617 10.06573,0.8957 4.42734,1.6574 7.25044,5.47946 2.88024,3.8656 3.67595,9.7557 0.40805,3.02056 0.21473,5.76353 -0.18652,2.79332 -0.88053,5.2451 l -4.15796,-1.18118 q 0.59739,-2.02864 0.87506,-4.5267 0.28447,-2.44771 -0.0624,-5.01519 -0.87052,-6.44387 -5.23657,-9.54487 -4.35926,-3.05066 -11.10518,-2.13933 -4.27913,0.57807 -7.41812,2.38619 -3.08185,1.85166 -4.54328,5.07351 -1.41108,3.21505 -0.75819,8.04795 0.31965,2.36611 0.79579,3.99341 0.47614,1.62731 1.01217,2.93895 l 10.67265,-1.4418 -1.06775,-7.9038 z m -22.87579,43.66958 4.22511,-19.82395 35.47444,7.56073 -4.22512,19.82394 -3.92504,-0.83655 3.27208,-15.35238 -11.07955,-2.3614 -3.08147,14.45807 -3.87536,-0.82597 3.08147,-14.45806 -12.66944,-2.70026 -3.27208,15.35238 z"
       id="text8"
       inkscape:label="purge"
       aria-label="PURGE" />
    <path
       id="path4"
       style="fill:none;stroke:none;stroke-width:0.569011;stroke-opacity:1"
       inkscape:label="inner left arch"
       inkscape:transform-center-y="0.0060200035"
       d="M 70.591028,195.84679 C 62.454632,182.4149 57.784517,166.74046 57.784517,150 c 0,-49.77458 41.286299,-90.124796 92.215413,-90.124796"
       sodipodi:nodetypes="csc"
       inkscape:transform-center-x="-0.15006046" />
    <path
       id="path6"
       style="fill:none;stroke:none;stroke-width:0.569011;stroke-opacity:1"
       inkscape:label="inner right arch"
       inkscape:transform-center-y="0.0060200035"
       d="m 149.99993,59.875204 c 50.92929,0 92.21558,40.350216 92.21558,90.124796 0,18.27265 -4.45077,33.71771 -11.9695,46.33006"
       sodipodi:nodetypes="csc"
       inkscape:transform-center-x="-0.15006046" />
    <path
       id="path8"
       style="fill:none;stroke:none;stroke-width:0.569011;stroke-opacity:1"
       inkscape:label="inner bottom arch"
       inkscape:transform-center-y="0.0060200035"
       d="m 70.591028,195.84679 c 16.055575,26.50519 45.608592,44.27802 79.408902,44.27802 33.80043,0 63.35347,-17.77283 79.40906,-44.27801"
       sodipodi:nodetypes="csc"
       inkscape:transform-center-x="-0.15006046" />
    <path
       style="font-size:50.8px;line-height:1.25;font-family:Sans;-inkscape-font-specification:'Sans, Normal';font-variant-ligatures:none;letter-spacing:0px;word-spacing:0px;dominant-baseline:hanging;text-anchor:middle;stroke-width:0.264583"
       d="m 91.012695,263.24584 2.214641,-11.84157 -12.210955,-7.58772 -9.592992,7.25677 -3.926491,-2.43987 31.262366,-23.45682 3.495006,2.17175 -7.228788,38.39095 z m 5.534047,-27.48231 q 0.08505,-0.42562 0.346058,-1.51941 0.261008,-1.0938 0.548828,-2.23074 0.35778,-1.15328 0.506928,-1.77831 -1.133201,1.14992 -2.325887,2.20306 -1.165874,1.00999 -1.880563,1.58264 l -9.28634,7.14827 9.751504,6.05945 z m 45.728838,28.73811 q -0.681,3.697 -2.73194,6.41849 -2.04174,2.67153 -5.46133,3.84955 -3.36042,1.13726 -8.10657,0.263 -6.64461,-1.22395 -9.47918,-5.46522 -2.77541,-4.28203 -1.68029,-10.22721 l 4.23323,-22.98136 4.49635,0.82824 -4.26084,23.13124 q -0.80063,4.34648 1.05578,7.16785 1.90637,2.83059 6.60256,3.69564 4.84607,0.89266 7.46366,-1.25956 2.67676,-2.19298 3.42218,-6.2397 l 4.25163,-23.08128 4.4464,0.81904 z m 31.13534,10.15643 -4.51517,0.71861 -5.07015,-31.85706 -11.1876,1.78054 -0.63077,-3.96332 26.84019,-4.2717 0.63078,3.96332 -11.13743,1.77255 z m 46.54229,-38.9708 q 2.78756,4.90159 3.19393,9.52104 0.42541,4.55018 -1.64296,8.41473 -2.06836,3.86455 -6.83748,6.57677 -4.90159,2.78755 -9.32452,2.61464 -4.37877,-0.19804 -8.05286,-2.95912 -3.6741,-2.76108 -6.46166,-7.66267 -2.76244,-4.85743 -3.23201,-9.3825 -0.46957,-4.52507 1.59879,-8.38961 2.11253,-3.88967 7.05828,-6.70234 4.72495,-2.6871 9.10373,-2.48907 4.35366,0.15388 8.07191,2.88984 3.7373,2.6667 6.52485,7.56829 z m -24.90538,14.1638 q 3.39027,5.9614 7.86613,7.97431 4.45074,1.96875 9.79392,-1.06993 5.38733,-3.0638 5.9265,-7.87034 0.51405,-4.8507 -2.87622,-10.81209 -3.39027,-5.9614 -7.77175,-7.91111 -4.40658,-1.99386 -9.74976,1.04482 -5.34317,3.03869 -5.97065,7.89546 -0.60844,4.78749 2.78183,10.74888 z"
       id="text9"
       inkscape:label="auto"
       aria-label="AUTO" />
  </g>
</svg>
