<?xml version="1.0" encoding="UTF-8" standalone="no"?>
<!-- Uploaded to: SVG Repo, www.svgrepo.com, Generator: SVG Repo Mixer Tools -->

<svg
   fill="#000000"
   height="800px"
   width="800px"
   version="1.1"
   id="Capa_1"
   viewBox="0 0 59 59"
   xml:space="preserve"
   sodipodi:docname="stairs-svgrepo-com(1).svg"
   inkscape:version="1.4 (86a8ad7, 2024-10-11)"
   xmlns:inkscape="http://www.inkscape.org/namespaces/inkscape"
   xmlns:sodipodi="http://sodipodi.sourceforge.net/DTD/sodipodi-0.dtd"
   xmlns="http://www.w3.org/2000/svg"
   xmlns:svg="http://www.w3.org/2000/svg"><defs
   id="defs1" /><sodipodi:namedview
   id="namedview1"
   pagecolor="#ffffff"
   bordercolor="#666666"
   borderopacity="1.0"
   inkscape:showpageshadow="2"
   inkscape:pageopacity="0.0"
   inkscape:pagecheckerboard="0"
   inkscape:deskcolor="#d1d1d1"
   inkscape:zoom="2.30125"
   inkscape:cx="399.78273"
   inkscape:cy="400"
   inkscape:window-width="3840"
   inkscape:window-height="2080"
   inkscape:window-x="-11"
   inkscape:window-y="621"
   inkscape:window-maximized="1"
   inkscape:current-layer="Capa_1" />
<path
   d="M49,11.289v5.422C49,16.87,48.87,17,48.71,17H48V2h10c0.552,0,1-0.447,1-1s-0.448-1-1-1H47c-0.044,0-0.082,0.02-0.124,0.025  c-0.072,0.009-0.142,0.017-0.211,0.042c-0.066,0.024-0.122,0.06-0.18,0.096c-0.039,0.024-0.083,0.034-0.119,0.064L3.841,35.191  c-0.426,0.351-0.488,0.981-0.137,1.407c0.198,0.241,0.484,0.365,0.773,0.365c0.224,0,0.449-0.074,0.635-0.228L7,35.183V49H2.29  C1.027,49,0,50.027,0,51.289V59h59V9h-7.71C50.027,9,49,10.027,49,11.289z M41.29,17C40.027,17,39,18.027,39,19.289V25h-1V9.695  l8-6.578V17H41.29z M32.29,25C31.027,25,30,26.027,30,27.289v5.422C30,32.87,29.87,33,29.71,33H29V17.095l7-5.756V25H32.29z   M22.29,33C21.027,33,20,34.027,20,35.289v5.422C20,40.87,19.87,41,19.71,41H19V25.317l8-6.578V33H22.29z M9,33.539l8-6.578V41  h-4.71C11.027,41,10,42.027,10,43.289v5.422C10,48.87,9.87,49,9.71,49H9V33.539z M57,57H2v-5.711C2,51.13,2.13,51,2.29,51H9.71  c1.263,0,2.29-1.027,2.29-2.289v-5.422C12,43.13,12.13,43,12.29,43h7.421c1.263,0,2.29-1.027,2.29-2.289v-5.422  C22,35.13,22.13,35,22.29,35h7.421c1.263,0,2.29-1.027,2.29-2.289v-5.422C32,27.13,32.13,27,32.29,27H41v-7.711  C41,19.13,41.13,19,41.29,19h7.421c1.263,0,2.29-1.027,2.29-2.289v-5.422C51,11.13,51.13,11,51.29,11H57V57z"
   id="path1"
   style="stroke:#1e90ff;stroke-opacity:1;stroke-width:0.1475;stroke-dasharray:none;fill:#ffffff;fill-opacity:1" />
<g
   id="SVGRepo_iconCarrier"
   transform="matrix(0.04294673,0,0,0.04294673,1.4686535,4.1392127)"
   style="fill:#1e90ff;fill-opacity:1"><g
     id="g4"
     style="fill:#1e90ff;fill-opacity:1"><path
       d="m 209.306,50.798 c -2.452,-3.337 -7.147,-4.055 -10.485,-1.602 -3.338,2.453 -4.055,7.147 -1.603,10.485 54.576,74.266 66.032,123.541 66.032,151.8 0,27.691 -8.272,52.794 -23.293,70.685 -17.519,20.866 -42.972,31.446 -75.651,31.446 -73.031,0 -98.944,-55.018 -98.944,-102.131 0,-52.227 28.103,-103.234 51.679,-136.829 25.858,-36.847 52.11,-61.415 52.37,-61.657 3.035,-2.819 3.209,-7.565 0.39,-10.6 -2.819,-3.034 -7.565,-3.209 -10.599,-0.39 -1.11,1.031 -27.497,25.698 -54.254,63.765 -24.901,35.428 -54.586,89.465 -54.586,145.71 0,31.062 9.673,59.599 27.236,80.353 20.361,24.061 50.345,36.779 86.708,36.779 36.794,0 66.926,-12.726 87.139,-36.801 17.286,-20.588 26.806,-49.117 26.806,-80.33 C 278.25,156.216 240.758,93.597 209.306,50.798 Z"
       id="path1-6"
       style="fill:#1e90ff;fill-opacity:1" /><path
       d="m 198.43,148.146 -95.162,95.162 c -2.929,2.929 -2.929,7.678 0,10.606 1.465,1.464 3.385,2.197 5.304,2.197 1.919,0 3.839,-0.732 5.304,-2.197 l 95.162,-95.162 c 2.929,-2.929 2.929,-7.678 0,-10.606 -2.931,-2.929 -7.679,-2.929 -10.608,0 z"
       id="path2-0"
       style="fill:#1e90ff;fill-opacity:1" /><path
       d="m 191.965,207.899 c -13.292,0 -24.106,10.814 -24.106,24.106 0,13.292 10.814,24.106 24.106,24.106 13.292,0 24.106,-10.814 24.106,-24.106 0,-13.292 -10.814,-24.106 -24.106,-24.106 z m 0,33.212 c -5.021,0 -9.106,-4.085 -9.106,-9.106 0,-5.021 4.085,-9.106 9.106,-9.106 5.021,0 9.106,4.085 9.106,9.106 0,5.021 -4.085,9.106 -9.106,9.106 z"
       id="path3-3"
       style="fill:#1e90ff;fill-opacity:1" /><path
       d="m 125.178,194.162 c 13.292,0 24.106,-10.814 24.106,-24.106 0,-13.292 -10.814,-24.106 -24.106,-24.106 -13.292,0 -24.106,10.814 -24.106,24.106 0,13.292 10.814,24.106 24.106,24.106 z m 0,-33.213 c 5.021,0 9.106,4.085 9.106,9.106 0,5.021 -4.085,9.106 -9.106,9.106 -5.021,0 -9.106,-4.085 -9.106,-9.106 0,-5.021 4.084,-9.106 9.106,-9.106 z"
       id="path4-8"
       style="fill:#1e90ff;fill-opacity:1" /></g></g><text
   xml:space="preserve"
   style="font-style:normal;font-variant:normal;font-weight:normal;font-stretch:normal;font-size:7.08px;line-height:1.25;font-family:Sans;-inkscape-font-specification:'Sans, Normal';font-variant-ligatures:none;font-variant-caps:normal;font-variant-numeric:normal;font-variant-east-asian:normal;letter-spacing:0px;word-spacing:0px;fill:#ffffff;fill-opacity:1;stroke:#1e90ff;stroke-width:0.07375;stroke-opacity:1"
   x="4.6175976"
   y="24.330301"
   id="text47"><tspan
     sodipodi:role="line"
     id="tspan47"
     style="font-style:normal;font-variant:normal;font-weight:normal;font-stretch:normal;font-size:7.08px;font-family:Sans;-inkscape-font-specification:'Sans, Normal';font-variant-ligatures:none;font-variant-caps:normal;font-variant-numeric:normal;font-variant-east-asian:normal;fill:#ffffff;fill-opacity:1;stroke:#1e90ff;stroke-width:0.07375;stroke-opacity:1"
     x="4.6175976"
     y="24.330301">70</tspan></text></svg>
